<?xml version="1.0" encoding="UTF-8"?>
<svg version="1.1" xmlns="http://www.w3.org/2000/svg" width="346" height="91">
<path d="M0 0 C114.18 0 228.36 0 346 0 C346 30.03 346 60.06 346 91 C231.82 91 117.64 91 0 91 C0 60.97 0 30.94 0 0 Z " fill="#FAFBFC" transform="translate(0,0)"/>
<path d="M0 0 C16.83 0 33.66 0 51 0 C51 0.33 51 0.66 51 1 C48.36 1.33 45.72 1.66 43 2 C43 2.66 43 3.32 43 4 C42.31035156 4.3403125 41.62070312 4.680625 40.91015625 5.03125 C29.26067414 11.03976204 20.67311324 18.23285797 15.96875 30.7421875 C12.55160953 42.41741744 12.13817803 55.1137592 18 66 C20.31 66 22.62 66 25 66 C24.45859375 65.01386719 24.45859375 65.01386719 23.90625 64.0078125 C19.3144708 54.59466515 17.74176296 44.18830885 20.56396484 33.95507812 C24.76613089 22.27487971 32.75403325 15.12811625 43.73828125 9.91015625 C51.17584703 6.91714619 61.56857341 6.50353636 69.25 9 C80.2990701 14.1514183 89.77024246 23.01935615 94.3359375 34.43359375 C97.28468555 45.82963767 94.10265345 55.79469309 89 66 C88.01 66 87.02 66 86 66 C85.29925156 69.153368 85 71.72724974 85 75 C78.1834265 76.7879537 72.03482474 77.23668569 65 77 C65 76.67 65 76.34 65 76 C66.65 76 68.3 76 70 76 C69.505 71.545 69.505 71.545 69 67 C68.01 67 67.02 67 66 67 C60.9409148 60.32200753 60.71650158 53.0788625 60.875 45.0625 C60.88402344 44.18787109 60.89304688 43.31324219 60.90234375 42.41210938 C60.9257043 40.27461936 60.96156753 38.13727214 61 36 C59.02 36.495 59.02 36.495 57 37 C56.67 38.32 56.34 39.64 56 41 C55.34 41 54.68 41 54 41 C53.34 42.32 52.68 43.64 52 45 C51.20310497 36.03493091 55.43090094 28.03047289 59 20 C45.7452138 28.9421076 37.16497882 38.37498296 32.6875 54.0625 C31.76360594 59.35389328 31.3393046 64.64255894 31 70 C29.98421875 70.14695312 28.9684375 70.29390625 27.921875 70.4453125 C19.6068763 71.76172728 12.7774011 73.5855009 5.35546875 77.79296875 C3 79 3 79 0 79 C0 52.93 0 26.86 0 0 Z " fill="#F8FCFB" transform="translate(0,0)"/>
<path d="M0 0 C0.495 0.99 0.495 0.99 1 2 C0.11081245 4.05219776 -0.86267212 6.06816743 -1.875 8.0625 C-4.53188934 13.59768612 -5.79297005 17.89261661 -6 24 C-5.67 23.34 -5.34 22.68 -5 22 C-4.34 22 -3.68 22 -3 22 C-2.67 20.35 -2.34 18.7 -2 17 C-0.68 17 0.64 17 2 17 C2.05607422 18.918125 2.05607422 18.918125 2.11328125 20.875 C2.17898742 22.5833604 2.24543311 24.29169247 2.3125 26 C2.34633789 27.25876953 2.34633789 27.25876953 2.38085938 28.54296875 C2.62711932 34.31888376 3.76629868 38.67127294 6 44 C6.35480302 45.3277815 6.693992 46.66013135 7 48 C7.99 48 8.98 48 10 48 C11.4783226 50.95664519 11.06032783 53.74229737 11 57 C26.47504995 56.9423648 39.13155019 49.81227924 52 42 C52 45 52 45 50.453125 46.9453125 C37.72630616 59.53673965 25.6157852 68.51739528 7.4375 69.4375 C-0.04473308 69.31263603 -6.83058098 66.96192746 -13.88378906 64.67578125 C-17.15387148 63.63152789 -20.44874168 62.69123927 -23.75 61.75 C-25.38195313 61.27820313 -25.38195313 61.27820313 -27.046875 60.796875 C-37.1829479 58.06174422 -46.84378636 58.48341609 -57 61 C-50.88735177 54.2545129 -42.63561036 51.86727347 -33.75 51.1875 C-31.83412033 51.10429865 -29.91738367 51.0340181 -28 51 C-28.04640625 50.28457031 -28.0928125 49.56914063 -28.140625 48.83203125 C-28.70330974 33.29791338 -22.91191631 20.60164384 -12.4921875 9.375 C-8.66930326 5.73187521 -4.45823757 2.81083037 0 0 Z " fill="#363695" transform="translate(59,19)"/>
<path d="M0 0 C0.67933594 0.3609375 1.35867187 0.721875 2.05859375 1.09375 C10.42341468 6.3101194 16.54928531 15.95312627 20 25 C20.61646183 27.89262859 20.92480995 30.10768948 21 33 C21.05027344 34.00160156 21.10054688 35.00320312 21.15234375 36.03515625 C21.39817051 44.44243147 21.00324919 52.07909134 15.75 58.9375 C12.57291415 61.32031438 9.71213606 62.61704735 6 64 C7.89600101 59.22031374 9.88701756 54.48252795 11.87890625 49.7421875 C14.91469913 42.31665926 15.46374153 34.33551126 12.87109375 26.65625 C7.69570066 15.95413165 0.18199507 6.86037226 -11.36328125 2.82421875 C-22.67675108 0.26015631 -33.56345052 1.4508588 -43.46484375 7.5078125 C-50.87966102 12.81292303 -56.27767413 20.24778809 -59 29 C-59.42670866 31.95036587 -59.47538324 34.83487713 -59.4375 37.8125 C-59.43427734 38.60205078 -59.43105469 39.39160156 -59.42773438 40.20507812 C-59.29581072 45.74132243 -58.37618618 50.24762765 -55.875 55.25 C-55 57 -55 57 -55 59 C-58.465 59.495 -58.465 59.495 -62 60 C-68.07687294 50.6084691 -68.0249888 40.40748212 -66.53515625 29.640625 C-63.68077047 16.60165564 -56.4185402 7.41891672 -45.4375 0.1875 C-32.11015023 -8.26540544 -13.66550886 -7.42018581 0 0 Z " fill="#0DA64F" transform="translate(80,7)"/>
<path d="M0 0 C5.38923649 1.82849095 8.46108206 4.92216411 11 10 C11.83709561 16.43367766 11.12307031 20.92916458 7.484375 26.30859375 C4.61249215 29.58102868 2.93802396 30.87423142 -1.49609375 31.46875 C-2.79675781 31.4790625 -4.09742188 31.489375 -5.4375 31.5 C-7.38462891 31.54640625 -7.38462891 31.54640625 -9.37109375 31.59375 C-13.83489026 30.86339793 -15.1919871 29.45877501 -18 26 C-21.43029947 20.9136939 -21.87426979 15.96446281 -21 10 C-19.3125 6.625 -19.3125 6.625 -17 4 C-16.34 3.21625 -15.68 2.4325 -15 1.625 C-10.17719576 -0.9873523 -5.36057953 -0.59642812 0 0 Z " fill="#403E8E" transform="translate(272,25)"/>
<path d="M0 0 C1.98 0 3.96 0 6 0 C6.02187378 1.45237061 6.02187378 1.45237061 6.04418945 2.93408203 C6.10241567 6.54626324 6.17964536 10.15783683 6.26245117 13.76953125 C6.29558667 15.32900081 6.3236537 16.88858702 6.34643555 18.44824219 C6.38019281 20.69776852 6.43251504 22.94623687 6.48828125 25.1953125 C6.49467117 25.8861795 6.5010611 26.57704651 6.50764465 27.28884888 C6.64523029 31.87800009 7.58486742 35.09655354 10 39 C13.14341993 40.57170996 16.55771451 40.23175783 20 40 C21.485 39.505 21.485 39.505 23 39 C25.20363677 34.2447838 25.41402959 30.13396685 25 25 C23.92589601 22.69457955 23.92589601 22.69457955 22 21 C19.36565446 20.47863332 19.36565446 20.47863332 16.5 20.6875 C15.06140625 20.72423828 15.06140625 20.72423828 13.59375 20.76171875 C10.88699861 20.9109371 10.88699861 20.9109371 8 22 C8 20.02 8 18.04 8 16 C11.75166044 13.49889304 15.65475613 13.48019513 20 14 C25.20721124 15.64895023 27.96822303 17.45233454 31 22 C33.07693295 26.15386591 32.53547452 31.07841144 31.31640625 35.453125 C29.8514041 39.12474864 28.29884035 41.68583451 25.5625 44.5625 C20.05840921 46.78344892 14.84597401 46.84788936 9 46 C4.45427687 44.06163504 2.43624127 40.42292036 0.6043396 35.95822144 C-0.42126015 32.63500479 -0.368199 29.31676943 -0.29296875 25.87890625 C-0.28660149 24.76176491 -0.28660149 24.76176491 -0.28010559 23.62205505 C-0.26345724 21.26848527 -0.22583375 18.91580621 -0.1875 16.5625 C-0.17243515 14.95639267 -0.15874991 13.35027177 -0.14648438 11.74414062 C-0.11359952 7.82908953 -0.06191626 3.91469521 0 0 Z " fill="#3F3E8E" transform="translate(215,11)"/>
<path d="M0 0 C3.94223409 2.04412138 7.1409053 4.59107939 10 8 C10 8.99 10 9.98 10 11 C8.87980469 11.55429687 7.75960937 12.10859375 6.60546875 12.6796875 C5.13275962 13.41135191 3.66010628 14.14312861 2.1875 14.875 C1.44951172 15.23980469 0.71152344 15.60460938 -0.04882812 15.98046875 C-0.76103516 16.33496094 -1.47324219 16.68945312 -2.20703125 17.0546875 C-2.8616333 17.37937012 -3.51623535 17.70405273 -4.19067383 18.03857422 C-6.24652798 19.09255672 -6.24652798 19.09255672 -9 21 C-9.99 21 -10.98 21 -12 21 C-12.33 19.35 -12.66 17.7 -13 16 C-12.07316406 15.51789062 -11.14632812 15.03578125 -10.19140625 14.5390625 C-8.98161257 13.9013418 -7.77198574 13.26330452 -6.5625 12.625 C-5.95083984 12.30789062 -5.33917969 11.99078125 -4.70898438 11.6640625 C-1.24761656 9.97695701 -1.24761656 9.97695701 1 7 C-5.23261142 5.66955723 -5.23261142 5.66955723 -11 7.8125 C-14.26195306 11.38026116 -14.41178328 14.03193637 -14.3359375 18.734375 C-14.1193128 21.28341343 -14.1193128 21.28341343 -12 24.0625 C-7.83994881 26.74919973 -5.89701312 26.6995733 -1 26 C2.41111001 23.57631657 3.69294241 20.92117276 5 17 C6.98 17 8.96 17 11 17 C11.4505519 20.07877133 11.50042912 22.21010698 9.8046875 24.88671875 C6.28720486 29.10239519 3.60581462 31.64574546 -1.98828125 32.40625 C-12.07124159 32.69061081 -12.07124159 32.69061081 -16.1875 29.3125 C-19.96194119 25.29514923 -21.07846924 21.96190039 -21.25 16.5 C-21.10661493 11.93431755 -20.76425468 8.73874738 -17.37890625 5.40234375 C-11.62558113 0.34276677 -7.73121162 -0.86827454 0 0 Z " fill="#403F8E" transform="translate(199,25)"/>
<path d="M0 0 C1.32 0 2.64 0 4 0 C4.03738281 1.27875 4.07476562 2.5575 4.11328125 3.875 C4.17898742 5.5833604 4.24543311 7.29169247 4.3125 9 C4.33505859 9.83917969 4.35761719 10.67835937 4.38085938 11.54296875 C4.62711932 17.31888376 5.76629868 21.67127294 8 27 C8.35480302 28.3277815 8.693992 29.66013135 9 31 C9.99 31 10.98 31 12 31 C13.4783226 33.95664519 13.06032783 36.74229737 13 40 C6.94100894 40.90214354 1.76003105 41.58613639 -4 39 C-9.21284456 32.91834802 -8.43463826 23.59100774 -8 16 C-7.47274702 12.30005949 -6.79116611 8.65207927 -6 5 C-5.34 5.66 -4.68 6.32 -4 7 C-3.67 6.34 -3.34 5.68 -3 5 C-2.34 5 -1.68 5 -1 5 C-0.67 3.35 -0.34 1.7 0 0 Z " fill="#E1ECF2" transform="translate(57,36)"/>
<path d="M0 0 C3.37551509 2.06247069 5.28176204 3.65506493 7.50390625 6.98828125 C7.73095703 9.44018555 7.73095703 9.44018555 7.69921875 12.3125 C7.69277344 13.34052734 7.68632812 14.36855469 7.6796875 15.42773438 C7.66292969 16.49958984 7.64617187 17.57144531 7.62890625 18.67578125 C7.61988281 19.75923828 7.61085938 20.84269531 7.6015625 21.95898438 C7.57797965 24.63563835 7.54506751 27.31184922 7.50390625 29.98828125 C5.52390625 29.98828125 3.54390625 29.98828125 1.50390625 29.98828125 C1.48932373 29.36783936 1.47474121 28.74739746 1.4597168 28.1081543 C1.38524037 25.29673492 1.28858061 22.48650376 1.19140625 19.67578125 C1.16884766 18.69931641 1.14628906 17.72285156 1.12304688 16.71679688 C1.06987305 15.31010742 1.06987305 15.31010742 1.015625 13.875 C0.98944092 13.01092529 0.96325684 12.14685059 0.9362793 11.2565918 C0.41909264 8.54333304 -0.30734447 7.63082795 -2.49609375 5.98828125 C-7.2685119 5.17952031 -11.91657435 5.10668902 -16.18359375 7.48828125 C-18.02331712 10.99251624 -18.14145477 14.16167002 -17.49609375 17.98828125 C-15.76641662 21.73375729 -15.76641662 21.73375729 -12.49609375 23.98828125 C-6.17963507 24.40335299 -6.17963507 24.40335299 -0.49609375 21.98828125 C-0.49609375 24.29828125 -0.49609375 26.60828125 -0.49609375 28.98828125 C-5.1934607 31.33696473 -11.41270513 30.60059852 -16.49609375 29.98828125 C-20.20614653 28.01400316 -21.77773845 25.19642426 -23.87109375 21.67578125 C-25.09500452 16.41296493 -25.16313634 11.75594412 -23.24609375 6.67578125 C-17.95995893 -1.4422115 -9.14853252 -3.70809065 0 0 Z " fill="#454593" transform="translate(311.49609375,26.01171875)"/>
<path d="M0 0 C0 3 0 3 -1.546875 4.9453125 C-14.35652686 17.61869147 -26.572519 26.7660646 -44.9375 27.3125 C-50.94511505 27.22678824 -56.3197218 25.8785172 -62 24 C-58.98968256 23.06576355 -58.13349732 22.95550089 -55 24 C-55.33 22.02 -55.66 20.04 -56 18 C-55.34 18 -54.68 18 -54 18 C-54 17.01 -54 16.02 -54 15 C-52.15148437 15.05220703 -52.15148437 15.05220703 -50.265625 15.10546875 C-30.52948835 15.50518797 -16.81137979 9.72145765 0 0 Z " fill="#403F91" transform="translate(111,61)"/>
<path d="M0 0 C0.33 0 0.66 0 1 0 C1.33 6.93 1.66 13.86 2 21 C2.99 20.34 3.98 19.68 5 19 C10.03673801 18.26948075 14.51411267 17.89422338 18.6875 21 C20.97713816 26.23345866 20.69733238 30.2068596 18.6875 35.375 C17 38 17 38 14 40 C7.00343119 40.78993519 7.00343119 40.78993519 3.0625 37.6875 C-0.20278699 33.43273211 -0.13641179 29.84669588 -0.09765625 24.70703125 C-0.0962413 24.00100266 -0.09482635 23.29497406 -0.09336853 22.56755066 C-0.08777764 20.31582374 -0.07522688 18.06419679 -0.0625 15.8125 C-0.05748382 14.28450665 -0.05292112 12.75651173 -0.04882812 11.22851562 C-0.0378112 7.48563865 -0.02055287 3.74283627 0 0 Z " fill="#F3F4FA" transform="translate(221,12)"/>
<path d="M0 0 C2.32421875 1.36328125 2.32421875 1.36328125 4 4 C4.48366703 7.59672389 4.37534365 11.129497 4.25 14.75 C4.23195313 15.73355469 4.21390625 16.71710937 4.1953125 17.73046875 C4.14824126 20.15463783 4.08250742 22.57682059 4 25 C3.34 24.67 2.68 24.34 2 24 C1.375 20.9375 1.375 20.9375 1 18 C0.01 18.66 -0.98 19.32 -2 20 C-8.91538462 20.66923077 -8.91538462 20.66923077 -12.9375 18.1875 C-16.10440267 14.82866383 -16.4334715 11.56281182 -16.32421875 7.0078125 C-16 5 -16 5 -14.1875 2 C-9.66910266 -0.83507284 -5.2076736 -1.12535421 0 0 Z " fill="#F5F5FA" transform="translate(309,31)"/>
<path d="M0 0 C3.50117898 0.06765563 4.60456748 0.32316717 7.6875 2.25 C10.79500104 5.55171986 10.96334701 7.81388248 10.9140625 12.33984375 C10.47775887 16.25905393 8.38818151 18.67431849 5.6875 21.375 C2.30517033 21.93479324 -0.92979421 21.92694392 -4.3125 21.375 C-7.69918207 18.23612394 -9.21661407 15.64548855 -9.5625 11.0625 C-9.1454732 4.91135468 -6.49459948 0.10915293 0 0 Z " fill="#F6F7FB" transform="translate(266.3125,29.625)"/>
<path d="M0 0 C0.33 0.99 0.66 1.98 1 3 C0.01 4.485 0.01 4.485 -1 6 C-1 6.99 -1 7.98 -1 9 C-1.33 9.66 -1.66 10.32 -2 11 C1.0745356 10.2236068 1.0745356 10.2236068 3 8 C3.33 8.66 3.66 9.32 4 10 C4.66 10 5.32 10 6 10 C6.05380578 12.79192205 6.09357669 15.5828141 6.125 18.375 C6.15013672 19.56609375 6.15013672 19.56609375 6.17578125 20.78125 C6.19335473 22.85492015 6.10335168 24.92883241 6 27 C5.34 27.66 4.68 28.32 4 29 C0.875 28.625 0.875 28.625 -2 28 C-2.33 26.68 -2.66 25.36 -3 24 C-3.66 24 -4.32 24 -5 24 C-5.268125 24.639375 -5.53625 25.27875 -5.8125 25.9375 C-7 28 -7 28 -10 29 C-11.50540531 25.98918937 -11.41470427 22.80906517 -11.625 19.5 C-11.6765625 18.81035156 -11.728125 18.12070313 -11.78125 17.41015625 C-12.12345364 12.24690727 -12.12345364 12.24690727 -11 10 C-10.34 10 -9.68 10 -9 10 C-9 9.34 -9 8.68 -9 8 C-12.3 7.67 -15.6 7.34 -19 7 C-19.33 7.66 -19.66 8.32 -20 9 C-20.33 7.68 -20.66 6.36 -21 5 C-20.05898437 5.04640625 -19.11796875 5.0928125 -18.1484375 5.140625 C-8.71072111 5.62472362 -8.71072111 5.62472362 -1 1 C-0.67 0.67 -0.34 0.34 0 0 Z " fill="#EEEFF9" transform="translate(207,51)"/>
<path d="M0 0 C1.98 0 3.96 0 6 0 C6 2.31 6 4.62 6 7 C9.63 7 13.26 7 17 7 C17 8.98 17 10.96 17 13 C13.37 13 9.74 13 6 13 C6.33 19.27 6.66 25.54 7 32 C10.3 32.33 13.6 32.66 17 33 C17 34.65 17 36.3 17 38 C14.91846065 38.13536022 12.83438794 38.23215465 10.75 38.3125 C9.58984375 38.37050781 8.4296875 38.42851563 7.234375 38.48828125 C4 38 4 38 1.82226562 35.95117188 C-0.42465422 32.31226953 -0.51341636 29.43274472 -0.390625 25.29296875 C-0.38496521 24.56757401 -0.37930542 23.84217926 -0.37347412 23.09480286 C-0.35119099 20.79167992 -0.30101487 18.49014776 -0.25 16.1875 C-0.22992434 14.62046528 -0.21167543 13.05340601 -0.1953125 11.48632812 C-0.15135337 7.65694481 -0.08238623 3.82874154 0 0 Z " fill="#403F87" transform="translate(326,18)"/>
<path d="M0 0 C1.98 0 3.96 0 6 0 C6.0093457 0.96824707 6.01869141 1.93649414 6.02832031 2.93408203 C6.06836783 6.54635647 6.13416554 10.15779235 6.20751953 13.76953125 C6.23564413 15.3289915 6.25690089 16.88859204 6.27099609 18.44824219 C6.29254542 20.69799173 6.33925057 22.94606974 6.390625 25.1953125 C6.39185364 25.8861795 6.39308228 26.57704651 6.39434814 27.28884888 C6.54289563 32.26261014 7.84031011 35.18628046 11 39 C13.55338446 39.92557086 13.55338446 39.92557086 16.25 39.875 C17.14203125 39.91367187 18.0340625 39.95234375 18.953125 39.9921875 C19.62859375 39.99476562 20.3040625 39.99734375 21 40 C21 41.65 21 43.3 21 45 C8.1036369 45.86103314 8.1036369 45.86103314 4.3125 42.6875 C0.14468289 37.84382066 -0.27569028 34.79464597 -0.1953125 28.61328125 C-0.1924826 27.79627243 -0.18965271 26.97926361 -0.18673706 26.13749695 C-0.17554541 23.52901541 -0.1504429 20.9208777 -0.125 18.3125 C-0.11496888 16.54362475 -0.10584326 14.77474412 -0.09765625 13.00585938 C-0.07560942 8.67044051 -0.0410867 4.33527855 0 0 Z " fill="#393883" transform="translate(119,11)"/>
<path d="M0 0 C1.31097656 0.09474609 1.31097656 0.09474609 2.6484375 0.19140625 C3.30070313 0.27261719 3.95296875 0.35382812 4.625 0.4375 C4.625 2.4175 4.625 4.3975 4.625 6.4375 C1.985 6.7675 -0.655 7.0975 -3.375 7.4375 C-4.365 10.0775 -5.355 12.7175 -6.375 15.4375 C-3.405 15.4375 -0.435 15.4375 2.625 15.4375 C2.625 17.0875 2.625 18.7375 2.625 20.4375 C-0.345 20.4375 -3.315 20.4375 -6.375 20.4375 C-6.375 28.6875 -6.375 36.9375 -6.375 45.4375 C-8.025 45.4375 -9.675 45.4375 -11.375 45.4375 C-11.5239597 40.15401398 -11.63250071 34.87176487 -11.70458984 29.58666992 C-11.73465704 27.79120579 -11.7755234 25.99588726 -11.82763672 24.20092773 C-11.90090349 21.61145026 -11.93455491 19.02392301 -11.9609375 16.43359375 C-11.99190521 15.63851913 -12.02287292 14.84344452 -12.05477905 14.02427673 C-12.05805242 8.53291568 -10.6620888 5.73878072 -6.93774414 1.71923828 C-4.62229791 -0.17985447 -2.9348301 -0.27761906 0 0 Z " fill="#37368A" transform="translate(173.375,10.5625)"/>
<path d="M0 0 C0.66 0.33 1.32 0.66 2 1 C0.68786941 4.93639176 -0.82801522 5.28653597 -4.4375 7.1875 C-5.92056641 7.98220703 -5.92056641 7.98220703 -7.43359375 8.79296875 C-10 10 -10 10 -12 10 C-11.67 11.65 -11.34 13.3 -11 15 C-9.90300781 14.44570313 -8.80601562 13.89140625 -7.67578125 13.3203125 C-6.22140813 12.58843442 -4.76697804 11.85666955 -3.3125 11.125 C-2.59126953 10.76019531 -1.87003906 10.39539062 -1.12695312 10.01953125 C2.53125364 8.1820758 6.1611695 6.43861498 10 5 C9.4740625 5.928125 9.4740625 5.928125 8.9375 6.875 C8.628125 7.57625 8.31875 8.2775 8 9 C8.33 9.66 8.66 10.32 9 11 C8.01 11 7.02 11 6 11 C5.9071875 12.0828125 5.9071875 12.0828125 5.8125 13.1875 C4.69450034 17.05749882 3.22410993 18.59906707 0 21 C-2.82680386 21.71383936 -5.1764231 21.73584125 -8 21 C-10.9375 18.5625 -10.9375 18.5625 -13 16 C-13.33 15.67 -13.66 15.34 -14 15 C-14.55720584 11.21896039 -14.84003776 7.52021759 -12.953125 4.10546875 C-8.62577193 -1.12553746 -6.48666825 -1.15833362 0 0 Z " fill="#ECEEF8" transform="translate(198,31)"/>
<path d="M0 0 C0.33 0 0.66 0 1 0 C1.03738281 0.88300781 1.07476562 1.76601563 1.11328125 2.67578125 C1.68919582 13.1890452 2.6620446 22.57382493 9.01171875 31.24609375 C10 33 10 33 10 37 C4.87540236 36.75001963 2.26661197 34.97592917 -1.484375 31.765625 C-5.94975869 26.56368317 -5.45984811 20.34528576 -5.40234375 13.828125 C-4.83841774 8.46261539 -2.94129568 4.46446665 0 0 Z " fill="#20A85A" transform="translate(59,37)"/>
<path d="M0 0 C7.59 0 15.18 0 23 0 C19.81237635 2.12508244 17.73487777 2.5020163 14 3 C15.32 3.33 16.64 3.66 18 4 C18 4.66 18 5.32 18 6 C18.99 6.33 19.98 6.66 21 7 C21 8.33333333 21 9.66666667 21 11 C10.97296577 13.22822983 1.65483076 12.19293616 -8 9 C-4.98968256 8.06576355 -4.13349732 7.95550089 -1 9 C-1.33 7.02 -1.66 5.04 -2 3 C-1.34 3 -0.68 3 0 3 C0 2.01 0 1.02 0 0 Z " fill="#43429C" transform="translate(57,76)"/>
<path d="M0 0 C3.17989728 2.08539088 5.50782171 4.02737138 6.73046875 7.6953125 C4.75046875 7.3653125 2.77046875 7.0353125 0.73046875 6.6953125 C0.40046875 7.6853125 0.07046875 8.6753125 -0.26953125 9.6953125 C-0.91019531 9.21320312 -1.55085938 8.73109375 -2.2109375 8.234375 C-3.07589844 7.60273438 -3.94085938 6.97109375 -4.83203125 6.3203125 C-5.67894531 5.69382812 -6.52585938 5.06734375 -7.3984375 4.421875 C-15.78904954 -0.62390802 -26.30157396 -0.48463791 -35.6875 1.37109375 C-38.24917224 2.07033417 -40.76315894 2.81990595 -43.26953125 3.6953125 C-43.26953125 3.0353125 -43.26953125 2.3753125 -43.26953125 1.6953125 C-42.27953125 1.6953125 -41.28953125 1.6953125 -40.26953125 1.6953125 C-40.26953125 1.0353125 -40.26953125 0.3753125 -40.26953125 -0.3046875 C-29.98316989 -1.92111571 -20.67114428 -2.50737401 -10.26953125 -1.3046875 C-18.58050781 -4.41397049 -26.48048134 -4.96484424 -35.26953125 -5.3046875 C-35.26953125 -4.6446875 -35.26953125 -3.9846875 -35.26953125 -3.3046875 C-37.90953125 -2.9746875 -40.54953125 -2.6446875 -43.26953125 -2.3046875 C-42.26953125 -4.3046875 -42.26953125 -4.3046875 -39.8359375 -5.40234375 C-26.17125974 -8.85967186 -12.11365094 -6.96378557 0 0 Z " fill="#28A761" transform="translate(82.26953125,8.3046875)"/>
<path d="M0 0 C1.21236328 0.04060547 1.21236328 0.04060547 2.44921875 0.08203125 C3.06410156 0.11683594 3.67898438 0.15164062 4.3125 0.1875 C3.9825 1.8375 3.6525 3.4875 3.3125 5.1875 C4.3025 5.5175 5.2925 5.8475 6.3125 6.1875 C6.3125 9.1575 6.3125 12.1275 6.3125 15.1875 C2.3901106 16.16809735 -0.66908793 16.40668611 -4.6875 16.1875 C-5.6775 15.5275 -6.6675 14.8675 -7.6875 14.1875 C-8.0859375 11.69140625 -8.0859375 11.69140625 -8.0625 8.75 C-8.07023437 7.78191406 -8.07796875 6.81382813 -8.0859375 5.81640625 C-7.6875 3.1875 -7.6875 3.1875 -6.45703125 1.3515625 C-4.16222627 -0.15804431 -2.72319411 -0.11839974 0 0 Z " fill="#D8F9E8" transform="translate(290.6875,62.8125)"/>
<path d="M0 0 C1.0209375 -0.01160156 1.0209375 -0.01160156 2.0625 -0.0234375 C4.60836752 0.50010784 5.47688258 1.2836247 7 3.375 C7.86672198 7.61491022 7.70069294 11.27006113 5.375 14.9375 C2.27451464 16.81410956 0.56716403 16.96952734 -3 16.375 C-5.375 14.9375 -5.375 14.9375 -7 12.375 C-7.49269345 9.30812169 -7.62344409 6.42482109 -7 3.375 C-4.95584069 0.56818798 -3.42633079 -0.03893558 0 0 Z " fill="#65B38B" transform="translate(267,62.625)"/>
<path d="M0 0 C1.0209375 -0.01160156 1.0209375 -0.01160156 2.0625 -0.0234375 C4.610474 0.50054102 5.48046049 1.27747613 7 3.375 C7.3984375 5.53125 7.3984375 5.53125 7.375 7.875 C7.38273438 8.6484375 7.39046875 9.421875 7.3984375 10.21875 C6.89880382 12.92264994 6.23833997 13.79674699 4 15.375 C1.80859375 15.7734375 1.80859375 15.7734375 -0.5625 15.75 C-1.74005859 15.76160156 -1.74005859 15.76160156 -2.94140625 15.7734375 C-3.62074219 15.64195313 -4.30007812 15.51046875 -5 15.375 C-7.06520632 12.27719052 -7.29477024 11.4209519 -7.3125 7.875 C-7.32925781 7.1015625 -7.34601563 6.328125 -7.36328125 5.53125 C-6.63835191 1.22844357 -4.1423027 -0.04707162 0 0 Z " fill="#49A376" transform="translate(227,62.625)"/>
<path d="M0 0 C1.98 0 3.96 0 6 0 C6 10.23 6 20.46 6 31 C4.02 31 2.04 31 0 31 C0 20.77 0 10.54 0 0 Z " fill="#504F8C" transform="translate(146,25)"/>
<path d="M0 0 C0.66 0.33 1.32 0.66 2 1 C3.23698203 5.99490211 3.15001515 11.01357079 3.125 16.125 C3.13080078 17.32189453 3.13080078 17.32189453 3.13671875 18.54296875 C3.13542969 19.31511719 3.13414063 20.08726563 3.1328125 20.8828125 C3.13168457 21.57777832 3.13055664 22.27274414 3.12939453 22.98876953 C2.99384145 25.09572476 2.57230879 26.97162851 2 29 C2.33 28.67 2.66 28.34 3 28 C5.67058851 27.85884839 8.32432238 27.95752893 11 28 C11 28.66 11 29.32 11 30 C8.15268151 31.63721941 5.296039 33.25746351 2.4375 34.875 C1.63763672 35.33519531 0.83777344 35.79539063 0.01367188 36.26953125 C-4.60902955 38.87333858 -8.82818073 40.79208516 -14 42 C-14 41.34 -14 40.68 -14 40 C-14.66 39.67 -15.32 39.34 -16 39 C-15.34 37.35 -14.68 35.7 -14 34 C-13.34 34 -12.68 34 -12 34 C-12.33 35.32 -12.66 36.64 -13 38 C-7.08810351 35.52414712 -7.08810351 35.52414712 -2.76953125 31.02734375 C-2.03147198 29.0229696 -1.4639933 27.08382707 -1 25 C-0.82799072 24.40227783 -0.65598145 23.80455566 -0.47875977 23.1887207 C0.05822778 20.73380313 0.11297461 18.52783657 0.09765625 16.015625 C0.09282227 14.61376953 0.09282227 14.61376953 0.08789062 13.18359375 C0.07951172 12.21550781 0.07113281 11.24742188 0.0625 10.25 C0.05798828 9.26644531 0.05347656 8.28289063 0.04882812 7.26953125 C0.03706483 4.84629209 0.02062684 2.42317727 0 0 Z " fill="#F0F5FA" transform="translate(100,32)"/>
<path d="M0 0 C1.65 0 3.3 0 5 0 C5 11.88 5 23.76 5 36 C0 32 0 32 -0.56762695 28.60839844 C-0.54144287 27.2887207 -0.51525879 25.96904297 -0.48828125 24.609375 C-0.48120651 23.90476135 -0.47413177 23.20014771 -0.46684265 22.47418213 C-0.43893357 20.23169109 -0.37621287 17.99173129 -0.3125 15.75 C-0.28741211 14.22659866 -0.26459978 12.70315803 -0.24414062 11.1796875 C-0.18912213 7.45230751 -0.10287804 3.72640094 0 0 Z " fill="#35348B" transform="translate(216,12)"/>
<path d="M0 0 C0.33 0.99 0.66 1.98 1 3 C0.34 3.66 -0.32 4.32 -1 5 C-1.3521821 9.05009412 -0.92361487 11.47337274 1 15 C-0.60332791 15.08121924 -2.20784026 15.13929134 -3.8125 15.1875 C-4.70582031 15.22230469 -5.59914062 15.25710937 -6.51953125 15.29296875 C-9 15 -9 15 -10.80078125 13.734375 C-12.86426536 10.75005271 -12.47798005 7.44284183 -12 4 C-9.92967553 -1.52086525 -5.0416524 -0.38050207 0 0 Z " fill="#DFF8EA" transform="translate(168,63)"/>
<path d="M0 0 C0.33 0 0.66 0 1 0 C1.02505615 1.0194873 1.0501123 2.03897461 1.07592773 3.08935547 C1.16997004 6.86520354 1.27019837 10.64086627 1.37231445 14.41650391 C1.41567538 16.05187653 1.45734961 17.68729477 1.49731445 19.32275391 C1.55498912 21.67103841 1.61869129 24.01909304 1.68359375 26.3671875 C1.70030624 27.10057343 1.71701874 27.83395935 1.73423767 28.58956909 C1.78637962 32.42202308 1.78637962 32.42202308 3 36 C3.66 36 4.32 36 5 36 C5.33 35.01 5.66 34.02 6 33 C6.639375 33.804375 7.27875 34.60875 7.9375 35.4375 C10.07124067 38.4931357 10.07124067 38.4931357 13.28515625 39.31640625 C14.20167969 39.39761719 15.11820313 39.47882812 16.0625 39.5625 C16.98160156 39.64628906 17.90070313 39.73007812 18.84765625 39.81640625 C19.91306641 39.90728516 19.91306641 39.90728516 21 40 C21 41.65 21 43.3 21 45 C8.1036369 45.86103314 8.1036369 45.86103314 4.3125 42.6875 C0.14468289 37.84382066 -0.27569028 34.79464597 -0.1953125 28.61328125 C-0.1924826 27.79627243 -0.18965271 26.97926361 -0.18673706 26.13749695 C-0.17554541 23.52901541 -0.1504429 20.9208777 -0.125 18.3125 C-0.11496888 16.54362475 -0.10584326 14.77474412 -0.09765625 13.00585938 C-0.07560942 8.67044051 -0.0410867 4.33527855 0 0 Z " fill="#7474AF" transform="translate(119,11)"/>
<path d="M0 0 C0.33 1.98 0.66 3.96 1 6 C0.01 6 -0.98 6 -2 6 C-1.67 7.98 -1.34 9.96 -1 12 C-2.65 12 -4.3 12 -6 12 C-6 13.32 -6 14.64 -6 16 C-4.35 16 -2.7 16 -1 16 C-1 16.66 -1 17.32 -1 18 C-4.3 18 -7.6 18 -11 18 C-11 12.72 -11 7.44 -11 2 C-4.25 -0.25 -4.25 -0.25 0 0 Z " fill="#DCFEED" transform="translate(326,60)"/>
<path d="M0 0 C9.27244773 -0.33786247 17.14087832 -0.09424624 26 3 C25.34 3.99 24.68 4.98 24 6 C24 5.34 24 4.68 24 4 C14.28385823 3.85026494 4.68370295 4.30386731 -5 5 C-5 5.66 -5 6.32 -5 7 C-5.99 7 -6.98 7 -8 7 C-8 7.66 -8 8.32 -8 9 C-11.13498292 10.85776765 -13.37471432 11.20140476 -17 11 C-16.11756917 8.03182357 -15.35087777 6.30701804 -13 4.25 C-8.75318967 2.4804957 -4.56229432 2.25690589 0 2 C0 1.34 0 0.68 0 0 Z " fill="#0BA74E" transform="translate(47,3)"/>
<path d="M0 0 C2.05078125 0.03255208 4.1015625 0.06510417 6.15234375 0.09765625 C6.15234375 0.75765625 6.15234375 1.41765625 6.15234375 2.09765625 C4.17234375 2.42765625 2.19234375 2.75765625 0.15234375 3.09765625 C0.48234375 4.08765625 0.81234375 5.07765625 1.15234375 6.09765625 C4.16081793 7.32285889 4.16081793 7.32285889 7.15234375 8.09765625 C7.34765625 14.15234375 7.34765625 14.15234375 7.15234375 16.09765625 C5.15234375 18.09765625 5.15234375 18.09765625 1.65234375 18.28515625 C-1.84765625 18.09765625 -1.84765625 18.09765625 -3.84765625 17.09765625 C-4.47265625 14.53515625 -4.47265625 14.53515625 -4.84765625 12.09765625 C-2.86765625 11.76765625 -0.88765625 11.43765625 1.15234375 11.09765625 C0.16234375 10.76765625 -0.82765625 10.43765625 -1.84765625 10.09765625 C-3.33872082 7.11552712 -2.96707092 4.38155967 -2.84765625 1.09765625 C-1.84765625 0.09765625 -1.84765625 0.09765625 0 0 Z " fill="#CFF4E3" transform="translate(336.84765625,62.90234375)"/>
<path d="M0 0 C4.6854046 7.02810689 3.89174568 18.81804479 2.50390625 26.8828125 C1.1115248 32.15340896 -0.51866712 35.63900034 -5 39 C-7.3057369 40.17923342 -9.56449628 41.09265548 -12 42 C-10.49637741 38.21283842 -8.94512999 34.44754813 -7.375 30.6875 C-6.92898437 29.61886719 -6.48296875 28.55023438 -6.0234375 27.44921875 C-5.68570313 26.64097656 -5.34796875 25.83273438 -5 25 C-4.67 25 -4.34 25 -4 25 C-4 26.98 -4 28.96 -4 31 C-3.01 31 -2.02 31 -1 31 C1.67456781 20.90646234 1.67456781 20.90646234 0 11 C-0.07033769 9.12620395 -0.0843022 7.24998898 -0.0625 5.375 C-0.05347656 4.37210938 -0.04445313 3.36921875 -0.03515625 2.3359375 C-0.02355469 1.56507812 -0.01195313 0.79421875 0 0 Z " fill="#29A760" transform="translate(98,29)"/>
<path d="M0 0 C3.3 0 6.6 0 10 0 C10 3.2275749 9.86272825 5.88090554 9 9 C6.5 10.25 6.5 10.25 4 11 C3.67 11.66 3.34 12.32 3 13 C4.65 13 6.3 13 8 13 C8 13.66 8 14.32 8 15 C5.36 15 2.72 15 0 15 C0 10.05 0 5.1 0 0 Z " fill="#C8F1DA" transform="translate(139,63)"/>
<path d="M0 0 C0.99 0.495 1.98 0.99 3 1.5 C3 4.33967231 2.59732819 6.73735711 2 9.5 C1.566875 8.84 1.13375 8.18 0.6875 7.5 C-3.49823859 4.38503175 -7.94471828 5.02920277 -13 5.5 C-13.99 5.83 -14.98 6.16 -16 6.5 C-16 4.52 -16 2.54 -16 0.5 C-11.02110403 -2.81926398 -5.25586299 -2.24946672 0 0 Z " fill="#413F8E" transform="translate(239,26.5)"/>
<path d="M0 0 C0.33 0 0.66 0 1 0 C1 2.31 1 4.62 1 7 C4.63 7 8.26 7 12 7 C12 8.98 12 10.96 12 13 C8.37 13 4.74 13 1 13 C1 18.94 1 24.88 1 31 C0.67 31 0.34 31 0 31 C-0.33 25.39 -0.66 19.78 -1 14 C-1.99 14 -2.98 14 -4 14 C-3.34 12.02 -2.68 10.04 -2 8 C-1.34 8 -0.68 8 0 8 C0 5.36 0 2.72 0 0 Z " fill="#6262A9" transform="translate(331,18)"/>
<path d="M0 0 C4 1 4 1 5.484375 2.84765625 C5.90203125 3.57855469 6.3196875 4.30945313 6.75 5.0625 C7.39195312 6.16271484 7.39195312 6.16271484 8.046875 7.28515625 C8.36140625 7.85105469 8.6759375 8.41695312 9 9 C9.33 6.03 9.66 3.06 10 0 C10.99 0 11.98 0 13 0 C13 4.95 13 9.9 13 15 C8 14 8 14 6.41796875 11.93359375 C4.70898438 8.46679688 4.70898438 8.46679688 3 5 C2.67 8.3 2.34 11.6 2 15 C1.34 15 0.68 15 0 15 C0 10.05 0 5.1 0 0 Z " fill="#57AA7D" transform="translate(198,63)"/>
<path d="M0 0 C4.75 0.875 4.75 0.875 7 2 C13.31645868 2.41507174 13.31645868 2.41507174 19 0 C19 2.31 19 4.62 19 7 C16.06276222 8.46861889 13.39407643 8.24793404 10.125 8.3125 C8.89007813 8.34988281 7.65515625 8.38726562 6.3828125 8.42578125 C3 8 3 8 0.5390625 6.12109375 C-1 4 -1 4 -0.75 1.75 C-0.5025 1.1725 -0.255 0.595 0 0 Z " fill="#44458F" transform="translate(292,48)"/>
<path d="M0 0 C0.99 0.66 1.98 1.32 3 2 C2.01 3.485 2.01 3.485 1 5 C0.34 5 -0.32 5 -1 5 C-1.12375 5.639375 -1.2475 6.27875 -1.375 6.9375 C-1.684375 7.9584375 -1.684375 7.9584375 -2 9 C-4.70879335 10.35439668 -7.00933268 10.06501451 -10 10 C-9.67 9.01 -9.34 8.02 -9 7 C-9.66 6.67 -10.32 6.34 -11 6 C-11 5.34 -11 4.68 -11 4 C-15.95 3.67 -20.9 3.34 -26 3 C-26 2.67 -26 2.34 -26 2 C-24.80761719 1.93941406 -23.61523438 1.87882812 -22.38671875 1.81640625 C-20.82030075 1.73198851 -19.25389512 1.64734113 -17.6875 1.5625 C-16.90181641 1.52318359 -16.11613281 1.48386719 -15.30664062 1.44335938 C-14.54931641 1.40146484 -13.79199219 1.35957031 -13.01171875 1.31640625 C-12.31522217 1.27974854 -11.61872559 1.24309082 -10.90112305 1.20532227 C-7.03304538 0.78756789 -4.01469849 -0.25091866 0 0 Z " fill="#373590" transform="translate(86,76)"/>
<path d="M0 0 C0 0.66 0 1.32 0 2 C-2.64 2.33 -5.28 2.66 -8 3 C-8 5.64 -8 8.28 -8 11 C-5.69 11.66 -3.38 12.32 -1 13 C-1 11.68 -1 10.36 -1 9 C-1.99 9 -2.98 9 -4 9 C-4 8.34 -4 7.68 -4 7 C-2.35 7 -0.7 7 1 7 C1 9.64 1 12.28 1 15 C-2.01868434 16.50934217 -4.67297229 16.17510672 -8 16 C-8.99 15.34 -9.98 14.68 -11 14 C-11.3984375 11.50390625 -11.3984375 11.50390625 -11.375 8.5625 C-11.38273437 7.59441406 -11.39046875 6.62632813 -11.3984375 5.62890625 C-11 3 -11 3 -9.73828125 1.1640625 C-6.64207632 -0.90935114 -3.63105553 -0.1785765 0 0 Z " fill="#489B6B" transform="translate(294,63)"/>
<path d="M0 0 C0 1.98 0 3.96 0 6 C-1.8871875 6.12375 -1.8871875 6.12375 -3.8125 6.25 C-7.33811212 6.66557143 -7.33811212 6.66557143 -10 9.0625 C-10.33 9.701875 -10.66 10.34125 -11 11 C-11.33 9.68 -11.66 8.36 -12 7 C-13.98 7.99 -13.98 7.99 -16 9 C-13.00275815 0.00827444 -8.78237284 -0.60336913 0 0 Z " fill="#5E5E9B" transform="translate(178,11)"/>
<path d="M0 0 C0.66 0 1.32 0 2 0 C2 1.98 2 3.96 2 6 C4.64 6 7.28 6 10 6 C10 4.02 10 2.04 10 0 C10.66 0 11.32 0 12 0 C12 4.95 12 9.9 12 15 C11.34 15 10.68 15 10 15 C10 13.02 10 11.04 10 9 C7.69 9 5.38 9 3 9 C3 10.98 3 12.96 3 15 C2.01 15 1.02 15 0 15 C0 10.05 0 5.1 0 0 Z " fill="#40976B" transform="translate(176,63)"/>
<path d="M0 0 C0.02689216 1.47906892 0.04634621 2.95827483 0.0625 4.4375 C0.07410156 5.26121094 0.08570313 6.08492188 0.09765625 6.93359375 C0 9 0 9 -1 10 C-3.9375 10.25 -3.9375 10.25 -7 10 C-9 7 -9 7 -8.75 3.375 C-8.5025 2.26125 -8.255 1.1475 -8 0 C-5.13822943 -1.43088528 -3.06624227 -0.59991697 0 0 Z " fill="#F1FDF6" transform="translate(231,66)"/>
<path d="M0 0 C1.0625 1.875 1.0625 1.875 2 4 C1.67 4.66 1.34 5.32 1 6 C0.93003986 7.70702735 0.91559846 9.41668003 0.9375 11.125 C0.95103516 12.49011719 0.95103516 12.49011719 0.96484375 13.8828125 C0.97644531 14.58148438 0.98804688 15.28015625 1 16 C2.32 16.33 3.64 16.66 5 17 C4.34 17.33 3.68 17.66 3 18 C3 18.99 3 19.98 3 21 C1.1875 20.875 1.1875 20.875 -1 20 C-4.26826212 15.33105412 -4.96745286 10.53994059 -4 5 C-2 1.9375 -2 1.9375 0 0 Z " fill="#3F3D89" transform="translate(182,32)"/>
<path d="M0 0 C0.66 0.33 1.32 0.66 2 1 C2.625 4.0625 2.625 4.0625 3 7 C4.32 7 5.64 7 7 7 C7.04254356 8.99954746 7.04080783 11.00041636 7 13 C6.67 13.33 6.34 13.66 6 14 C6.99 14.33 7.98 14.66 9 15 C9 13.35 9 11.7 9 10 C9.33 10 9.66 10 10 10 C10 11.98 10 13.96 10 16 C5.38 16.66 0.76 17.32 -4 18 C-3.67 17.01 -3.34 16.02 -3 15 C-3.66 14.67 -4.32 14.34 -5 14 C-4.67 12.68 -4.34 11.36 -4 10 C-3.67 10.66 -3.34 11.32 -3 12 C-0.69 12 1.62 12 4 12 C3.71125 11.38511719 3.4225 10.77023438 3.125 10.13671875 C2.75375 9.32847656 2.3825 8.52023438 2 7.6875 C1.443125 6.48673828 1.443125 6.48673828 0.875 5.26171875 C0 3 0 3 0 0 Z " fill="#D3F8E4" transform="translate(21,54)"/>
<path d="M0 0 C1 1 1 1 1.1328125 3.03125 C1.13023437 3.8459375 1.12765625 4.660625 1.125 5.5 C1.12757813 6.3146875 1.13015625 7.129375 1.1328125 7.96875 C1 10 1 10 0 11 C-1.99958364 11.04080783 -4.00045254 11.04254356 -6 11 C-7.60725635 7.78548731 -7.05748185 4.56387464 -7 1 C-4.51588385 -0.24205807 -2.74800896 -0.14092354 0 0 Z " fill="#D8FCEA" transform="translate(270,65)"/>
<path d="M0 0 C0.33 0.66 0.66 1.32 1 2 C0.14694908 4.16028595 -0.80781566 6.28092726 -1.8125 8.375 C-2.35519531 9.51710938 -2.89789063 10.65921875 -3.45703125 11.8359375 C-4.6247404 14.23048031 -5.80858237 16.61716473 -7 19 C-6.67 15.37 -6.34 11.74 -6 8 C-7.11375 8.94875 -8.2275 9.8975 -9.375 10.875 C-10.00148438 11.40867187 -10.62796875 11.94234375 -11.2734375 12.4921875 C-12.55836651 13.61432007 -13.79371975 14.79371975 -15 16 C-15.66 15.34 -16.32 14.68 -17 14 C-11.80762601 8.42562575 -6.50296493 3.97403413 0 0 Z " fill="#43428A" transform="translate(59,19)"/>
<path d="M0 0 C1.98 0 3.96 0 6 0 C6 0.33 6 0.66 6 1 C4.35 1 2.7 1 1 1 C1.06875659 5.52122067 1.15666032 10.04150568 1.26245117 14.56201172 C1.2957373 16.10031779 1.32375778 17.63874707 1.34643555 19.17724609 C1.37991558 21.38692818 1.4322231 23.59547735 1.48828125 25.8046875 C1.49467117 26.49432587 1.5010611 27.18396423 1.50764465 27.89450073 C1.54025714 30.04685389 1.54025714 30.04685389 2 33 C2.99 33.66 3.98 34.32 5 35 C5 34.34 5 33.68 5 33 C5.66 33 6.32 33 7 33 C7.66 34.98 8.32 36.96 9 39 C8.01 39.495 8.01 39.495 7 40 C6.34 40.99 5.68 41.98 5 43 C0.9393509 37.10550938 -0.14764406 33.32249465 -0.09765625 26.26953125 C-0.0962413 25.51911057 -0.09482635 24.76868988 -0.09336853 23.99552917 C-0.0877756 21.6011454 -0.07522444 19.20685547 -0.0625 16.8125 C-0.05748408 15.18815239 -0.05292134 13.56380332 -0.04882812 11.93945312 C-0.03780848 7.95959931 -0.02054873 3.97981556 0 0 Z " fill="#5A5A9A" transform="translate(215,11)"/>
<path d="M0 0 C5.03096284 0.9864633 7.72666292 1.98303954 10.93359375 6.26953125 C12.65652733 9.06535387 13.83400148 11.93158283 15 15 C14.34 15 13.68 15 13 15 C13 14.01 13 13.02 13 12 C11.68 11.34 10.36 10.68 9 10 C9 9.01 9 8.02 9 7 C8.34 7 7.68 7 7 7 C7.33 8.32 7.66 9.64 8 11 C7.01 11 6.02 11 5 11 C-0.70172084 5.02676864 -0.70172084 5.02676864 -1 1 C-0.67 0.67 -0.34 0.34 0 0 Z " fill="#1BA658" transform="translate(83,14)"/>
<path d="M0 0 C0.8765625 -0.01224609 1.753125 -0.02449219 2.65625 -0.03710938 C7.45923102 -0.04795948 11.56742587 0.10280498 16 2.1875 C18 5.1875 18 5.1875 18 7.1875 C12 5.1875 12 5.1875 9.5625 4.125 C4.25950201 2.72947421 -0.91847062 2.9789489 -6.375 3.0625 C-8.05142578 3.07603516 -8.05142578 3.07603516 -9.76171875 3.08984375 C-12.50803462 3.11331654 -15.25390472 3.14615272 -18 3.1875 C-13.62817389 -1.18432611 -5.84860436 0.00430044 0 0 Z " fill="#C8F3DE" transform="translate(61,-0.1875)"/>
<path d="M0 0 C0.66 0.33 1.32 0.66 2 1 C2.05791844 4.12492251 2.09356746 7.24970766 2.125 10.375 C2.14175781 11.26445313 2.15851563 12.15390625 2.17578125 13.0703125 C2.18222656 13.92109375 2.18867188 14.771875 2.1953125 15.6484375 C2.20578613 16.43395996 2.21625977 17.21948242 2.22705078 18.02880859 C2 20 2 20 0 22 C-1.86132673 17.29538677 -2.2509496 13.1242304 -2.125 8.125 C-2.11146484 7.09246094 -2.11146484 7.09246094 -2.09765625 6.0390625 C-2.07432513 4.35922162 -2.03846326 2.67956254 -2 1 C-1.34 0.67 -0.68 0.34 0 0 Z " fill="#35348C" transform="translate(329,31)"/>
<path d="M0 0 C0.66 0 1.32 0 2 0 C3.01973129 3.05919388 3.11533602 5.12418025 3.09765625 8.32421875 C3.09443359 9.35224609 3.09121094 10.38027344 3.08789062 11.43945312 C3.07951172 12.51130859 3.07113281 13.58316406 3.0625 14.6875 C3.05798828 15.77095703 3.05347656 16.85441406 3.04882812 17.97070312 C3.03703743 20.64719085 3.02058063 23.32356777 3 26 C2.01 26 1.02 26 0 26 C0 17.42 0 8.84 0 0 Z " fill="#35338E" transform="translate(148,28)"/>
<path d="M0 0 C-3.465 1.485 -3.465 1.485 -7 3 C-5.94039062 2.98839844 -4.88078125 2.97679688 -3.7890625 2.96484375 C-2.40104342 2.95546524 -1.01302245 2.94636511 0.375 2.9375 C1.07367187 2.92912109 1.77234375 2.92074219 2.4921875 2.91210938 C7.7734375 2.88671875 7.7734375 2.88671875 10 4 C10 4.99 10 5.98 10 7 C8.9275 6.835 7.855 6.67 6.75 6.5 C-2.40251587 5.38423393 -11.05204655 5.78280799 -20 8 C-16.98467341 4.61500597 -14.17665728 2.91559195 -10 1.1875 C-8.96875 0.74792969 -7.9375 0.30835937 -6.875 -0.14453125 C-3.98133776 -1.00555303 -2.76052896 -1.08164957 0 0 Z " fill="#55538C" transform="translate(22,72)"/>
<path d="M0 0 C0.99 0 1.98 0 3 0 C3 10.89 3 21.78 3 33 C2.34 33 1.68 33 1 33 C-0.26750669 26.20336964 -0.11139726 19.45701316 -0.0625 12.5625 C-0.05798828 11.35400391 -0.05347656 10.14550781 -0.04882812 8.90039062 C-0.03710145 5.93354211 -0.02068896 2.9667973 0 0 Z " fill="#353495" transform="translate(121,14)"/>
<path d="M0 0 C2.64 0 5.28 0 8 0 C8 0.66 8 1.32 8 2 C6.02 2 4.04 2 2 2 C2 3.65 2 5.3 2 7 C3.98 7 5.96 7 8 7 C8 7.66 8 8.32 8 9 C6.35 9 4.7 9 3 9 C3 10.32 3 11.64 3 13 C4.65 13 6.3 13 8 13 C8 13.66 8 14.32 8 15 C5.36 15 2.72 15 0 15 C0 10.05 0 5.1 0 0 Z " fill="#4DA372" transform="translate(317,63)"/>
<path d="M0 0 C4.62 0.66 9.24 1.32 14 2 C14 3.65 14 5.3 14 7 C11.89646505 7.0810206 9.79204048 7.13919907 7.6875 7.1875 C6.51574219 7.22230469 5.34398437 7.25710937 4.13671875 7.29296875 C1 7 1 7 -0.91796875 5.48828125 C-1.27503906 4.99714844 -1.63210937 4.50601563 -2 4 C0.97 4.495 0.97 4.495 4 5 C3.01 4.67 2.02 4.34 1 4 C0.67 2.68 0.34 1.36 0 0 Z " fill="#49478E" transform="translate(126,49)"/>
<path d="M0 0 C0.66 0.66 1.32 1.32 2 2 C1.34 2 0.68 2 0 2 C0 6.62 0 11.24 0 16 C-0.99 16.33 -1.98 16.66 -3 17 C-5.66301861 13.00547208 -5.84758428 9.69874395 -5 5 C-2.5 1.9375 -2.5 1.9375 0 0 Z " fill="#35338F" transform="translate(292,31)"/>
<path d="M0 0 C0 0.99 0 1.98 0 3 C-0.99 3.495 -0.99 3.495 -2 4 C-2.33 9.61 -2.66 15.22 -3 21 C-4.32 21 -5.64 21 -7 21 C-7 18.36 -7 15.72 -7 13 C-6.67 13 -6.34 13 -6 13 C-6 14.98 -6 16.96 -6 19 C-5.34 19 -4.68 19 -4 19 C-4 14.05 -4 9.1 -4 4 C-4.66 4 -5.32 4 -6 4 C-6 5.98 -6 7.96 -6 10 C-8.64 10 -11.28 10 -14 10 C-14 8.02 -14 6.04 -14 4 C-13.67 4 -13.34 4 -13 4 C-13 5.65 -13 7.3 -13 9 C-11.02 9 -9.04 9 -7 9 C-7.33 7.02 -7.66 5.04 -8 3 C-2.25 0 -2.25 0 0 0 Z " fill="#C7F0D8" transform="translate(192,59)"/>
<path d="M0 0 C0.33 0 0.66 0 1 0 C1.22127098 2.29045368 1.4266504 4.58244764 1.625 6.875 C1.74101562 8.15117188 1.85703125 9.42734375 1.9765625 10.7421875 C1.98429688 11.81726563 1.99203125 12.89234375 2 14 C1.34 14.66 0.68 15.32 0 16 C-3.125 15.625 -3.125 15.625 -6 15 C-6.33 13.68 -6.66 12.36 -7 11 C-7.66 11 -8.32 11 -9 11 C-9.33 11.99 -9.66 12.98 -10 14 C-10.33 14 -10.66 14 -11 14 C-11 10.37 -11 6.74 -11 3 C-8.54610571 5.45389429 -7.51333754 6.69841784 -6.0625 9.625 C-4.28120458 13.42647765 -4.28120458 13.42647765 0 14 C0 9.38 0 4.76 0 0 Z " fill="#E0FEED" transform="translate(211,64)"/>
<path d="M0 0 C0.66 0.33 1.32 0.66 2 1 C3.22755436 5.9884056 3.18333524 11.01900328 3.1875 16.125 C3.19974609 16.92292969 3.21199219 17.72085938 3.22460938 18.54296875 C3.24258274 25.72033354 3.24258274 25.72033354 1 29 C0.34 29 -0.32 29 -1 29 C-0.83628906 27.906875 -0.67257813 26.81375 -0.50390625 25.6875 C0.15009907 20.45545742 0.10970402 15.26506338 0.0625 10 C0.05798828 9.03449219 0.05347656 8.06898437 0.04882812 7.07421875 C0.03715417 4.71607911 0.02078021 2.35807398 0 0 Z " fill="#D3F9E5" transform="translate(100,32)"/>
<path d="M0 0 C1.38868286 -0.00580078 1.38868286 -0.00580078 2.80541992 -0.01171875 C10.71125105 0.12044665 16.87157417 1.76688918 23.9375 5.4375 C20.04509857 6.93384897 17.48110094 5.85231461 13.625 4.5625 C6.01399001 2.24158213 -1.11854851 1.66001965 -9.0625 1.4375 C-9.0625 2.0975 -9.0625 2.7575 -9.0625 3.4375 C-11.7025 3.7675 -14.3425 4.0975 -17.0625 4.4375 C-16.0625 2.4375 -16.0625 2.4375 -13.62890625 1.33984375 C-9.03467655 0.17744828 -4.72390386 0.0135416 0 0 Z " fill="#2FA763" transform="translate(56.0625,1.5625)"/>
<path d="M0 0 C0.66 0.33 1.32 0.66 2 1 C1.67 5.95 1.34 10.9 1 16 C-0.32 16 -1.64 16 -3 16 C-3 11.05 -3 6.1 -3 1 C-2.01 0.67 -1.02 0.34 0 0 Z " fill="#90C9AA" transform="translate(308,62)"/>
<path d="M0 0 C1.485 0.99 1.485 0.99 3 2 C3.4765625 5.15234375 3.4765625 5.15234375 3.625 8.9375 C3.81525626 14.05952395 3.81525626 14.05952395 5 19 C3.125 18.875 3.125 18.875 1 18 C-1.69599316 12.47321403 -1.95042501 5.85127504 0 0 Z " fill="#333497" transform="translate(254,32)"/>
<path d="M0 0 C0.99 0.33 1.98 0.66 3 1 C2.60167969 1.556875 2.20335937 2.11375 1.79296875 2.6875 C0.99826172 3.8321875 0.99826172 3.8321875 0.1875 5 C-0.59560547 6.11375 -0.59560547 6.11375 -1.39453125 7.25 C-5.39442797 14.1014046 -6.56609242 20.65544193 -7.1875 28.5 C-7.26935547 29.4178125 -7.35121094 30.335625 -7.43554688 31.28125 C-7.63378407 33.52016424 -7.82171417 35.75942408 -8 38 C-8.33 38 -8.66 38 -9 38 C-9.10621544 29.25492893 -9.01286753 20.69980864 -8 12 C-7.01 11.67 -6.02 11.34 -5 11 C-4.37907282 9.18703385 -4.37907282 9.18703385 -4 7 C-3.3530635 5.3255761 -2.69040574 3.65697379 -2 2 C-1.34 2 -0.68 2 0 2 C0 1.34 0 0.68 0 0 Z " fill="#D4FCE7" transform="translate(21,16)"/>
<path d="M0 0 C0 0.66 0 1.32 0 2 C-0.33 2.33 -0.66 2.66 -1 3 C0.65 3 2.3 3 4 3 C-4.75 10 -4.75 10 -10 10 C-10.33 8.35 -10.66 6.7 -11 5 C-9.54462432 4.16151196 -8.08559627 3.32936066 -6.625 2.5 C-5.81289062 2.0359375 -5.00078125 1.571875 -4.1640625 1.09375 C-2 0 -2 0 0 0 Z " fill="#44438F" transform="translate(197,36)"/>
<path d="M0 0 C2.05078125 0.03255208 4.1015625 0.06510417 6.15234375 0.09765625 C6.15234375 0.75765625 6.15234375 1.41765625 6.15234375 2.09765625 C4.17234375 2.42765625 2.19234375 2.75765625 0.15234375 3.09765625 C0.84120171 6.30827003 0.84120171 6.30827003 3.71484375 7.47265625 C4.51921875 8.00890625 5.32359375 8.54515625 6.15234375 9.09765625 C6.52734375 11.72265625 6.52734375 11.72265625 6.15234375 14.09765625 C5.15234375 15.09765625 5.15234375 15.09765625 3.3046875 15.1953125 C1.25390625 15.16276042 -0.796875 15.13020833 -2.84765625 15.09765625 C-2.84765625 14.76765625 -2.84765625 14.43765625 -2.84765625 14.09765625 C0.61734375 13.60265625 0.61734375 13.60265625 4.15234375 13.09765625 C2.90031508 9.34157024 1.52170802 8.9508066 -1.84765625 7.09765625 C-2.84765625 6.09765625 -2.84765625 6.09765625 -2.97265625 3.59765625 C-2.80017347 0.14800071 -2.80017347 0.14800071 0 0 Z " fill="#3E9C6D" transform="translate(336.84765625,62.90234375)"/>
<path d="M0 0 C0 0.66 0 1.32 0 2 C-2.31 2 -4.62 2 -7 2 C-7 5.96 -7 9.92 -7 14 C-4.69 14 -2.38 14 0 14 C0 14.33 0 14.66 0 15 C-7.28358209 15.35820896 -7.28358209 15.35820896 -10 14 C-11.62824168 10.74351663 -11.49521025 7.51599278 -11 4 C-8.87613735 -1.30965662 -5.01877178 -0.32909979 0 0 Z " fill="#4FA778" transform="translate(167,63)"/>
<path d="M0 0 C1.32 0.66 2.64 1.32 4 2 C3.67 2.99 3.34 3.98 3 5 C1.68 4.67 0.36 4.34 -1 4 C-1 7.3 -1 10.6 -1 14 C-4.33557632 11.0094833 -6.15083921 8.06815373 -8 4 C-5.35261084 2.5393715 -4.10551666 2 -1 2 C-0.67 1.34 -0.34 0.68 0 0 Z " fill="#E2FCEE" transform="translate(209,59)"/>
<path d="M0 0 C4.17556345 5.12455515 5.27864561 9.34184945 5.25 15.9375 C5.25773437 17.71447266 5.25773437 17.71447266 5.265625 19.52734375 C4.99993706 23.00082283 4.24620553 25.76085468 3 29 C2.67 29 2.34 29 2 29 C2 21.08 2 13.16 2 5 C1.34 5 0.68 5 0 5 C0 3.35 0 1.7 0 0 Z " fill="#BCF2D4" transform="translate(90,28)"/>
<path d="M0 0 C0.99 0 1.98 0 3 0 C3 4.29 3 8.58 3 13 C4.98 13 6.96 13 9 13 C9 13.66 9 14.32 9 15 C6.03 15 3.06 15 0 15 C0 10.05 0 5.1 0 0 Z " fill="#5DAD83" transform="translate(243,63)"/>
<path d="M0 0 C0.33 0 0.66 0 1 0 C1.33 2.64 1.66 5.28 2 8 C2.33 6.02 2.66 4.04 3 2 C3.33 2 3.66 2 4 2 C4.36517527 8.57315478 3.13619737 13.79485526 1 20 C0.01 20 -0.98 20 -2 20 C-2 17.69 -2 15.38 -2 13 C-1.34 13 -0.68 13 0 13 C0 8.71 0 4.42 0 0 Z " fill="#08A74D" transform="translate(96,40)"/>
<path d="M0 0 C2.64 0 5.28 0 8 0 C8 0.66 8 1.32 8 2 C6.02 2 4.04 2 2 2 C2 3.65 2 5.3 2 7 C3.98 7 5.96 7 8 7 C8 7.33 8 7.66 8 8 C6.02 8 4.04 8 2 8 C2 9.98 2 11.96 2 14 C3.98 14 5.96 14 8 14 C8 14.33 8 14.66 8 15 C5.36 15 2.72 15 0 15 C0 10.05 0 5.1 0 0 Z " fill="#3B9566" transform="translate(139,63)"/>
<path d="M0 0 C0.75 1.6875 0.75 1.6875 1 4 C-2.78499621 9.48171865 -5.57826255 11.33510511 -12 13 C-12 12.34 -12 11.68 -12 11 C-12.66 10.67 -13.32 10.34 -14 10 C-13.34 8.35 -12.68 6.7 -12 5 C-11.34 5 -10.68 5 -10 5 C-10.33 6.32 -10.66 7.64 -11 9 C-9.53444684 8.26420788 -8.07775513 7.51074874 -6.625 6.75 C-5.81289062 6.33234375 -5.00078125 5.9146875 -4.1640625 5.484375 C-1.79198795 3.85732025 -1.02905196 2.64613361 0 0 Z " fill="#E2F3F1" transform="translate(98,61)"/>
<path d="M0 0 C2.97 0 5.94 0 9 0 C9 2.64 9 5.28 9 8 C4.545 6.02 4.545 6.02 0 4 C0 2.68 0 1.36 0 0 Z " fill="#FBFCFA" transform="translate(337,65)"/>
<path d="M0 0 C3.465 1.98 3.465 1.98 7 4 C6.34 4.66 5.68 5.32 5 6 C5 5.34 5 4.68 5 4 C3.68 4 2.36 4 1 4 C1.66 4.33 2.32 4.66 3 5 C2.67 5.99 2.34 6.98 2 8 C1.01 7.34 0.02 6.68 -1 6 C-4.19806665 5.5396236 -4.19806665 5.5396236 -7.6875 5.375 C-8.86699219 5.30023437 -10.04648437 5.22546875 -11.26171875 5.1484375 C-12.16535156 5.09945313 -13.06898438 5.05046875 -14 5 C-13.34 3.68 -12.68 2.36 -12 1 C-10.68 1.33 -9.36 1.66 -8 2 C-8.99 2 -9.98 2 -11 2 C-11 2.66 -11 3.32 -11 4 C-5.6092003 3.76995266 -5.6092003 3.76995266 -1 1.4375 C-0.67 0.963125 -0.34 0.48875 0 0 Z " fill="#4D4D96" transform="translate(310,26)"/>
<path d="M0 0 C2.59729469 0.47831368 3.45115672 1.21806141 4.97265625 3.36328125 C5.265625 5.625 5.265625 5.625 5.16015625 8.05078125 C5.13308594 8.85902344 5.10601562 9.66726562 5.078125 10.5 C5.04332031 11.11488281 5.00851562 11.72976562 4.97265625 12.36328125 C4.31265625 12.36328125 3.65265625 12.36328125 2.97265625 12.36328125 C2.31265625 9.39328125 1.65265625 6.42328125 0.97265625 3.36328125 C-1.33734375 3.36328125 -3.64734375 3.36328125 -6.02734375 3.36328125 C-6.35734375 5.01328125 -6.68734375 6.66328125 -7.02734375 8.36328125 C-7.35734375 8.36328125 -7.68734375 8.36328125 -8.02734375 8.36328125 C-8.15234375 5.48828125 -8.15234375 5.48828125 -8.02734375 2.36328125 C-5.4339847 -0.2300778 -3.53987343 0.08601562 0 0 Z " fill="#3E9E69" transform="translate(269.02734375,62.63671875)"/>
<path d="M0 0 C1.32 1.32 2.64 2.64 4 4 C0.97265625 4.24414062 0.97265625 4.24414062 -2.0546875 4.48828125 C-4.39519216 4.87393036 -4.39519216 4.87393036 -6 8 C-6.45139459 10.0492094 -6.45139459 10.0492094 -6.625 12.1875 C-6.74875 13.445625 -6.8725 14.70375 -7 16 C-7.66 15.67 -8.32 15.34 -9 15 C-10.27536232 9.55072464 -10.27536232 9.55072464 -9 7 C-8.34 7 -7.68 7 -7 7 C-7 5.35 -7 3.7 -7 2 C-4.69 1.34 -2.38 0.68 0 0 Z " fill="#E3FDF1" transform="translate(163,59)"/>
<path d="M0 0 C0.33 0 0.66 0 1 0 C1.02505615 0.589021 1.0501123 1.17804199 1.07592773 1.78491211 C1.19332361 4.50258671 1.31538715 7.22003342 1.4375 9.9375 C1.47681641 10.86369141 1.51613281 11.78988281 1.55664062 12.74414062 C1.82079121 18.53513419 2.29764309 24.24539503 3 30 C-0.42945071 26.57054929 -0.94794896 22.8751633 -1.23046875 18.125 C-1.22653248 16.74993104 -1.21205099 15.37485541 -1.1875 14 C-1.18685547 13.31421875 -1.18621094 12.6284375 -1.18554688 11.921875 C-1.15059718 7.85217771 -0.77979754 3.99256341 0 0 Z " fill="#3CAC6E" transform="translate(14,34)"/>
<path d="M0 0 C3.96 0 7.92 0 12 0 C12.33 0.66 12.66 1.32 13 2 C12.34 2.66 11.68 3.32 11 4 C11 4.33 11 4.66 11 5 C9.52093108 5.02689216 8.04172517 5.04634621 6.5625 5.0625 C5.32693359 5.07990234 5.32693359 5.07990234 4.06640625 5.09765625 C2 5 2 5 1 4 C0.34 3.67 -0.32 3.34 -1 3 C-0.67 2.01 -0.34 1.02 0 0 Z " fill="#403E8A" transform="translate(297,25)"/>
<path d="M0 0 C2.97 0 5.94 0 9 0 C9.33 0.66 9.66 1.32 10 2 C8.72125 2.12375 7.4425 2.2475 6.125 2.375 C2.65209064 2.69042399 2.65209064 2.69042399 0 5 C-0.46290221 7.66242821 -0.46290221 7.66242821 -0.625 10.625 C-0.69976562 11.62789062 -0.77453125 12.63078125 -0.8515625 13.6640625 C-0.90054687 14.43492188 -0.94953125 15.20578125 -1 16 C-1.66 15.67 -2.32 15.34 -3 15 C-3.02708567 13.39592672 -3.04643483 11.7917215 -3.0625 10.1875 C-3.07410156 9.29417969 -3.08570313 8.40085937 -3.09765625 7.48046875 C-3 5 -3 5 -2 2 C-1.34 2 -0.68 2 0 2 C0 1.34 0 0.68 0 0 Z " fill="#D9FCE9" transform="translate(284,61)"/>
<path d="M0 0 C0.33 0 0.66 0 1 0 C1 5.61 1 11.22 1 17 C0.01 17.33 -0.98 17.66 -2 18 C-2.05397335 15.5622037 -2.09365616 13.12560315 -2.125 10.6875 C-2.14175781 9.99720703 -2.15851562 9.30691406 -2.17578125 8.59570312 C-2.21217794 4.82864604 -2.14378864 3.21568296 0 0 Z " fill="#06A94A" transform="translate(58,39)"/>
<path d="M0 0 C2.97 0.495 2.97 0.495 6 1 C6.33 2.65 6.66 4.3 7 6 C6.34 5.34 5.68 4.68 5 4 C4.67 10.6 4.34 17.2 4 24 C4.99 24.33 5.98 24.66 7 25 C5.68 25 4.36 25 3 25 C2.93941406 23.75863281 2.87882812 22.51726563 2.81640625 21.23828125 C2.73196377 19.59634423 2.64731764 17.95441768 2.5625 16.3125 C2.52318359 15.49587891 2.48386719 14.67925781 2.44335938 13.83789062 C2.18043489 6.7075219 2.18043489 6.7075219 0 0 Z " fill="#373688" transform="translate(311,30)"/>
<path d="M0 0 C0.66 0.33 1.32 0.66 2 1 C1.67 1.66 1.34 2.32 1 3 C3.97 2.34 6.94 1.68 10 1 C7.24479785 3.95929119 4.53372712 6.03681826 1 8 C0.67 7.01 0.34 6.02 0 5 C-1.65 5.66 -3.3 6.32 -5 7 C-5 7.66 -5 8.32 -5 9 C-5.66 9 -6.32 9 -7 9 C-5.44499019 5.18315774 -2.96404505 2.80804268 0 0 Z " fill="#2BA863" transform="translate(29,11)"/>
<path d="M0 0 C0.66 0 1.32 0 2 0 C0.13662717 5.72321654 0.13662717 5.72321654 -1.05859375 8.14453125 C-2.37233666 12.12936969 -2.25174496 15.83422145 -2.1875 20 C-2.18685547 20.7940625 -2.18621094 21.588125 -2.18554688 22.40625 C-2.15562835 26.395387 -1.98093144 30.10766403 -1 34 C-3.22580424 32.24610162 -3.942774 31.36563455 -4.38818359 28.51977539 C-4.39156738 27.55547607 -4.39495117 26.59117676 -4.3984375 25.59765625 C-4.40230469 24.54255859 -4.40617187 23.48746094 -4.41015625 22.40039062 C-4.39275391 20.74813477 -4.39275391 20.74813477 -4.375 19.0625 C-4.38660156 17.96486328 -4.39820312 16.86722656 -4.41015625 15.73632812 C-4.40628906 14.67994141 -4.40242188 13.62355469 -4.3984375 12.53515625 C-4.39505371 11.569729 -4.39166992 10.60430176 -4.38818359 9.60961914 C-3.93748029 6.57970241 -2.93658976 5.31941831 -1 3 C-0.67 2.01 -0.34 1.02 0 0 Z " fill="#34AA67" transform="translate(23,25)"/>
<path d="M0 0 C3.3 0 6.6 0 10 0 C10 0.66 10 1.32 10 2 C8.68 2 7.36 2 6 2 C6 6.29 6 10.58 6 15 C5.34 15 4.68 15 4 15 C4 10.71 4 6.42 4 2 C2.68 2 1.36 2 0 2 C0 1.34 0 0.68 0 0 Z " fill="#3D9367" transform="translate(120,63)"/>
<path d="M0 0 C4 1 4 1 6 4 C5.625 6.1875 5.625 6.1875 5 8 C4.34 7.01 3.68 6.02 3 5 C2.67 8.3 2.34 11.6 2 15 C1.34 15 0.68 15 0 15 C0 10.05 0 5.1 0 0 Z " fill="#419869" transform="translate(198,63)"/>
<path d="M0 0 C2 3 2 3 3.4375 6.375 C4.85950155 9.92852779 4.85950155 9.92852779 6.6875 12.6875 C8 15 8 15 8 19 C6.02 18.67 4.04 18.34 2 18 C2.66 17.01 3.32 16.02 4 15 C3.525625 14.38125 3.05125 13.7625 2.5625 13.125 C0.41947162 8.83894324 0.26657436 4.73399291 0 0 Z " fill="#2FA868" transform="translate(61,55)"/>
<path d="M0 0 C4.29 0 8.58 0 13 0 C12.34 1.65 11.68 3.3 11 5 C9.68 5 8.36 5 7 5 C7 8.96 7 12.92 7 17 C6.67 17 6.34 17 6 17 C6 12.71 6 8.42 6 4 C7.32 4 8.64 4 10 4 C10 3.34 10 2.68 10 2 C6.7 2 3.4 2 0 2 C0 1.34 0 0.68 0 0 Z " fill="#CEF7E2" transform="translate(120,61)"/>
<path d="M0 0 C0.5775 0.763125 1.155 1.52625 1.75 2.3125 C5.41525328 6.69044141 8.52416803 8.38214056 14 10 C13.34 7.69 12.68 5.38 12 3 C12.66 3 13.32 3 14 3 C15.4783226 5.95664519 15.06032783 8.74229737 15 12 C10.34031562 12.42360767 7.0924622 11.19780377 3 9 C0.32387466 5.63326167 0 4.38796347 0 0 Z " fill="#CBF7E2" transform="translate(55,64)"/>
<path d="M0 0 C1.65 0.33 3.3 0.66 5 1 C4.01 1.33 3.02 1.66 2 2 C2 6.95 2 11.9 2 17 C2.66 17.33 3.32 17.66 4 18 C3.01 18.33 2.02 18.66 1 19 C-0.50540531 15.98918937 -0.41470427 12.80906517 -0.625 9.5 C-0.6765625 8.81035156 -0.728125 8.12070313 -0.78125 7.41015625 C-1.12345364 2.24690727 -1.12345364 2.24690727 0 0 Z " fill="#D8FBED" transform="translate(196,61)"/>
<path d="M0 0 C1.43583001 -0.10836453 2.8740202 -0.18576167 4.3125 -0.25 C5.11300781 -0.29640625 5.91351563 -0.3428125 6.73828125 -0.390625 C9 0 9 0 12 4 C6.06 4.495 6.06 4.495 0 5 C0 3.35 0 1.7 0 0 Z " fill="#37348D" transform="translate(262,25)"/>
<path d="M0 0 C0.66 0 1.32 0 2 0 C2.125 5.75 2.125 5.75 1 8 C3.64 8 6.28 8 9 8 C9 8.33 9 8.66 9 9 C7.02 9 5.04 9 3 9 C3 10.98 3 12.96 3 15 C2.01 15 1.02 15 0 15 C0 10.05 0 5.1 0 0 Z " fill="#56AB7C" transform="translate(176,63)"/>
<path d="M0 0 C0 3 0 3 -1.75 5.04296875 C-2.4925 5.75066406 -3.235 6.45835938 -4 7.1875 C-4.7425 7.90292969 -5.485 8.61835937 -6.25 9.35546875 C-6.8275 9.89816406 -7.405 10.44085938 -8 11 C-8.33 10.01 -8.66 9.02 -9 8 C-9.99 7.67 -10.98 7.34 -12 7 C-8.04 4.69 -4.08 2.38 0 0 Z " fill="#53508E" transform="translate(111,61)"/>
<path d="M0 0 C0.33 0 0.66 0 1 0 C1 2.31 1 4.62 1 7 C-1.40545638 8.20272819 -2.94996953 8.10071472 -5.625 8.0625 C-6.85089844 8.04896484 -6.85089844 8.04896484 -8.1015625 8.03515625 C-9.04128906 8.01775391 -9.04128906 8.01775391 -10 8 C-9.34 7.67 -8.68 7.34 -8 7 C-8 6.34 -8 5.68 -8 5 C-6.576875 4.87625 -6.576875 4.87625 -5.125 4.75 C-1.89538209 4.34925077 -1.89538209 4.34925077 -0.625 1.9375 C-0.41875 1.298125 -0.2125 0.65875 0 0 Z " fill="#3A3986" transform="translate(310,48)"/>
<path d="M0 0 C0.33 0 0.66 0 1 0 C1 4.95 1 9.9 1 15 C0.01 15 -0.98 15 -2 15 C-2.05429959 13.25034642 -2.09292823 11.50020213 -2.125 9.75 C-2.15980469 8.28820312 -2.15980469 8.28820312 -2.1953125 6.796875 C-1.99862781 3.9803502 -1.44568916 2.39050964 0 0 Z " fill="#03AB4B" transform="translate(17,38)"/>
<path d="M0 0 C1.65 0.99 3.3 1.98 5 3 C4.52949219 3.54140625 4.05898437 4.0828125 3.57421875 4.640625 C1.73777329 7.39301472 1.31616146 9.49557207 0.8125 12.75 C0.65394531 13.73484375 0.49539062 14.7196875 0.33203125 15.734375 C0.22246094 16.48203125 0.11289063 17.2296875 0 18 C-0.33 18 -0.66 18 -1 18 C-1.02684312 15.18743719 -1.04676188 12.37512759 -1.0625 9.5625 C-1.07087891 8.76005859 -1.07925781 7.95761719 -1.08789062 7.13085938 C-1.0965143 5.08704779 -1.0522815 3.04316098 -1 1 C-0.67 0.67 -0.34 0.34 0 0 Z " fill="#E9EBF9" transform="translate(178,26)"/>
<path d="M0 0 C0.33 0 0.66 0 1 0 C1 4.95 1 9.9 1 15 C5.455 14.505 5.455 14.505 10 14 C9.67 14.99 9.34 15.98 9 17 C2.84765625 17.87890625 2.84765625 17.87890625 1 18 C0 17 0 17 -0.09765625 13.18359375 C-0.09098089 11.60153318 -0.07901875 10.01948841 -0.0625 8.4375 C-0.05798828 7.63119141 -0.05347656 6.82488281 -0.04882812 5.99414062 C-0.03700518 3.99606244 -0.01906914 1.99802217 0 0 Z " fill="#C6F3DB" transform="translate(138,63)"/>
<path d="M0 0 C0.33 0 0.66 0 1 0 C1.33 2.97 1.66 5.94 2 9 C3.423125 9.144375 4.84625 9.28875 6.3125 9.4375 C9.11102904 9.72140874 11.3093858 10.1031286 14 11 C12 13 12 13 8.5625 13.1875 C5 13 5 13 2 12 C2 11.34 2 10.68 2 10 C1.34 10 0.68 10 0 10 C0 6.7 0 3.4 0 0 Z " fill="#DDF9E8" transform="translate(259,68)"/>
<path d="M0 0 C1.32 0.33 2.64 0.66 4 1 C5.68442142 6.83579076 6.26143011 11.94460204 6.125 18 C6.11597656 18.77472656 6.10695313 19.54945312 6.09765625 20.34765625 C6.07439388 22.23190843 6.0385364 24.11599832 6 26 C5.34 26 4.68 26 4 26 C4.04640625 24.96101563 4.0928125 23.92203125 4.140625 22.8515625 C4.40036394 14.39381336 4.11765123 7.64706657 0 0 Z " fill="#24A25E" transform="translate(90,27)"/>
<path d="M0 0 C1.2065625 0.0309375 1.2065625 0.0309375 2.4375 0.0625 C2.81968767 1.71864657 3.15145102 3.38707024 3.4375 5.0625 C2.4375 6.0625 2.4375 6.0625 -0.125 6.125 C-1.3315625 6.0940625 -1.3315625 6.0940625 -2.5625 6.0625 C-2.94468767 4.40635343 -3.27645102 2.73792976 -3.5625 1.0625 C-2.5625 0.0625 -2.5625 0.0625 0 0 Z " fill="#444285" transform="translate(149.5625,14.9375)"/>
<path d="M0 0 C0 2.97 0 5.94 0 9 C-0.33 9 -0.66 9 -1 9 C-1.33 6.69 -1.66 4.38 -2 2 C-3.65 2 -5.3 2 -7 2 C-6.67 3.98 -6.34 5.96 -6 8 C-6.99 8.495 -6.99 8.495 -8 9 C-9.32561852 2.61292897 -9.32561852 2.61292897 -7.9375 0 C-5.08594286 -1.47177143 -3.03295907 -0.74138999 0 0 Z " fill="#C3F7DB" transform="translate(231,66)"/>
<path d="M0 0 C0.66 0.66 1.32 1.32 2 2 C1.2059375 2.77085938 0.411875 3.54171875 -0.40625 4.3359375 C-1.43776041 5.34869317 -2.46899627 6.36172852 -3.5 7.375 C-4.02464844 7.88289063 -4.54929687 8.39078125 -5.08984375 8.9140625 C-6.43153181 10.23832604 -7.71995815 11.61605865 -9 13 C-9 13.66 -9 14.32 -9 15 C-10.98 15.33 -12.96 15.66 -15 16 C-14.360625 15.360625 -13.72125 14.72125 -13.0625 14.0625 C-12.61519531 13.61390625 -12.16789062 13.1653125 -11.70703125 12.703125 C-10.37606625 11.37520569 -9.03885731 10.0535437 -7.69921875 8.734375 C-6.89097656 7.93515625 -6.08273438 7.1359375 -5.25 6.3125 C-4.08210938 5.16201172 -4.08210938 5.16201172 -2.890625 3.98828125 C-0.94769385 2.1389301 -0.94769385 2.1389301 0 0 Z " fill="#E5E8F8" transform="translate(112,61)"/>
<path d="M0 0 C4 4.625 4 4.625 4 8 C3.67 8.66 3.34 9.32 3 10 C3.99 10.33 4.98 10.66 6 11 C4.25 11.6875 4.25 11.6875 2 12 C-0.25 10.6875 -0.25 10.6875 -2 9 C-2 8.34 -2 7.68 -2 7 C-1.01 6.67 -0.02 6.34 1 6 C0.67 4.02 0.34 2.04 0 0 Z " fill="#4D518D" transform="translate(257,44)"/>
<path d="M0 0 C0.66 0 1.32 0 2 0 C2 1.32 2 2.64 2 4 C1.34 4 0.68 4 0 4 C-0.0825 4.70125 -0.165 5.4025 -0.25 6.125 C-1.17027725 9.65272947 -2.88126977 12.06111614 -5 15 C-6.21940083 11.3417975 -5.63709904 10.41551324 -4.1875 6.9375 C-3.83042969 6.05964844 -3.47335938 5.18179687 -3.10546875 4.27734375 C-2 2 -2 2 0 0 Z " fill="#04A84C" transform="translate(23,21)"/>
<path d="M0 0 C7.875 0.875 7.875 0.875 9 2 C9.04063832 3.66617115 9.042721 5.33388095 9 7 C4.71193127 6.52354792 2.73352513 5.34097516 0 2 C0 1.34 0 0.68 0 0 Z " fill="#0AA751" transform="translate(73,7)"/>
<path d="M0 0 C1.65 0.33 3.3 0.66 5 1 C4.67 2.32 4.34 3.64 4 5 C7.63 5.33 11.26 5.66 15 6 C15 6.33 15 6.66 15 7 C12.91781638 7.10832169 10.83400871 7.18573541 8.75 7.25 C7.00976562 7.31960937 7.00976562 7.31960937 5.234375 7.390625 C1.42333987 6.93035506 0.34488245 5.94851556 -2 3 C-1.34 3 -0.68 3 0 3 C0 2.01 0 1.02 0 0 Z " fill="#4F4E95" transform="translate(185,50)"/>
<path d="M0 0 C0 1.32 0 2.64 0 4 C-3.63 4 -7.26 4 -11 4 C-7.95841042 -0.56238437 -5.1474794 -0.11438843 0 0 Z " fill="#38338D" transform="translate(177,12)"/>
<path d="M0 0 C0 0.66 0 1.32 0 2 C3.63 2 7.26 2 11 2 C7.47320901 4.35119399 5.97120515 4.21443452 1.8125 4.125 C0.72582031 4.10695313 -0.36085938 4.08890625 -1.48046875 4.0703125 C-2.72763672 4.03550781 -2.72763672 4.03550781 -4 4 C-4 3.34 -4 2.68 -4 2 C-4.66 1.67 -5.32 1.34 -6 1 C-3.92446352 0.4465236 -2.15634036 0 0 0 Z " fill="#545199" transform="translate(64,84)"/>
<path d="M0 0 C3 1 3 1 5 4 C5.125 7.1875 5.125 7.1875 5 10 C3.68 9.67 2.36 9.34 1 9 C0.67 6.03 0.34 3.06 0 0 Z " fill="#06AA4A" transform="translate(17,55)"/>
<path d="M0 0 C0.99 0.66 1.98 1.32 3 2 C2.34 2.66 1.68 3.32 1 4 C0.71917656 6.10749466 0.71917656 6.10749466 0.8125 8.4375 C0.81894531 9.21996094 0.82539063 10.00242187 0.83203125 10.80859375 C0.92444331 13.17799677 0.92444331 13.17799677 2 16 C1.01 16 0.02 16 -1 16 C-3.51916075 9.76839184 -2.57502973 6.10531243 0 0 Z " fill="#CEF5E1" transform="translate(220,62)"/>
<path d="M0 0 C0.33 0 0.66 0 1 0 C1 1.98 1 3.96 1 6 C-3.62 6.66 -8.24 7.32 -13 8 C-12.67 6.68 -12.34 5.36 -12 4 C-3.42857143 3.85714286 -3.42857143 3.85714286 0 5 C0 3.35 0 1.7 0 0 Z " fill="#DDE0F4" transform="translate(30,64)"/>
<path d="M0 0 C3.465 1.98 3.465 1.98 7 4 C7 4.99 7 5.98 7 7 C4.36 7.66 1.72 8.32 -1 9 C-1.33 8.01 -1.66 7.02 -2 6 C-0.02 5.67 1.96 5.34 4 5 C3.01 4.67 2.02 4.34 1 4 C0.3125 1.9375 0.3125 1.9375 0 0 Z " fill="#B9EACF" transform="translate(334,69)"/>
<path d="M0 0 C0.66 0 1.32 0 2 0 C2.33 2.97 2.66 5.94 3 9 C4.32 9.33 5.64 9.66 7 10 C5.35 10.33 3.7 10.66 2 11 C-0.26881841 7.91440696 -1.05451946 6.57790624 -0.6875 2.6875 C-0.460625 1.800625 -0.23375 0.91375 0 0 Z " fill="#E6FBEE" transform="translate(332,64)"/>
<path d="M0 0 C1.32 0 2.64 0 4 0 C4 0.99 4 1.98 4 3 C4.99 3.33 5.98 3.66 7 4 C6.67 4.99 6.34 5.98 6 7 C3.03 7 0.06 7 -3 7 C-3 6.67 -3 6.34 -3 6 C-0.36 6 2.28 6 5 6 C5 5.34 5 4.68 5 4 C3.35 4 1.7 4 0 4 C0 2.68 0 1.36 0 0 Z " fill="#D5F4E5" transform="translate(320,72)"/>
<path d="M0 0 C0.66 0.99 1.32 1.98 2 3 C1.01 3 0.02 3 -1 3 C-0.67 4.32 -0.34 5.64 0 7 C-1.98 7 -3.96 7 -6 7 C-6 5.35 -6 3.7 -6 2 C-4.02 2 -2.04 2 0 2 C0 1.34 0 0.68 0 0 Z " fill="#BAEDD2" transform="translate(325,63)"/>
<path d="M0 0 C0.33 0.66 0.66 1.32 1 2 C0.67 2.66 0.34 3.32 0 4 C-3.96 4 -7.92 4 -12 4 C-12.33 3.01 -12.66 2.02 -13 1 C-12.31292969 1.01160156 -11.62585938 1.02320313 -10.91796875 1.03515625 C-9.56638672 1.04869141 -9.56638672 1.04869141 -8.1875 1.0625 C-6.84751953 1.07990234 -6.84751953 1.07990234 -5.48046875 1.09765625 C-2.86586209 1.11009967 -2.86586209 1.11009967 0 0 Z " fill="#343492" transform="translate(200,52)"/>
<path d="M0 0 C1.27514492 3.82543475 0.52740413 5.33423008 -1 9 C-2.5 10.75 -2.5 10.75 -4 12 C-4.66 12.66 -5.32 13.32 -6 14 C-5.57202798 8.29370646 -3.15654048 4.58921384 0 0 Z " fill="#37AA68" transform="translate(21,20)"/>
<path d="M0 0 C0.33 0 0.66 0 1 0 C1 3.96 1 7.92 1 12 C0.34 12 -0.32 12 -1 12 C-1.33 12.66 -1.66 13.32 -2 14 C-2.99 12.02 -3.98 10.04 -5 8 C-4.34 7.34 -3.68 6.68 -3 6 C-2.01 7.485 -2.01 7.485 -1 9 C-0.67 6.03 -0.34 3.06 0 0 Z " fill="#66BB8C" transform="translate(208,63)"/>
<path d="M0 0 C0.33 0 0.66 0 1 0 C1.06058594 0.97582031 1.12117188 1.95164063 1.18359375 2.95703125 C1.26738281 4.22933594 1.35117187 5.50164063 1.4375 6.8125 C1.51871094 8.07707031 1.59992188 9.34164062 1.68359375 10.64453125 C1.87184547 13.99181893 1.87184547 13.99181893 3 17 C1.68 16.67 0.36 16.34 -1 16 C-2.26823485 12.34606463 -1.75715321 9.50929974 -1.0625 5.75 C-0.86785156 4.67234375 -0.67320312 3.5946875 -0.47265625 2.484375 C-0.31667969 1.66453125 -0.16070312 0.8446875 0 0 Z " fill="#35368A" transform="translate(256,34)"/>
<path d="M0 0 C1.32 0 2.64 0 4 0 C4 4.95 4 9.9 4 15 C3.67 15 3.34 15 3 15 C2.67 10.71 2.34 6.42 2 2 C1.01 3.98 0.02 5.96 -1 8 C-2.2077558 4.37673261 -1.54311128 3.35853631 0 0 Z " fill="#C4F5D9" transform="translate(57,36)"/>
<path d="M0 0 C3.63 0 7.26 0 11 0 C11 1.32 11 2.64 11 4 C7.04 4 3.08 4 -1 4 C-1 3.67 -1 3.34 -1 3 C1.97 3 4.94 3 8 3 C8 2.34 8 1.68 8 1 C5.36 1 2.72 1 0 1 C0 0.67 0 0.34 0 0 Z " fill="#383782" transform="translate(332,26)"/>
<path d="M0 0 C1.65 0 3.3 0 5 0 C5 2.64 5 5.28 5 8 C2.36 8 -0.28 8 -3 8 C-3 7.67 -3 7.34 -3 7 C-1.02 7 0.96 7 3 7 C3 5.35 3 3.7 3 2 C2.01 2 1.02 2 0 2 C0 1.34 0 0.68 0 0 Z " fill="#3A9764" transform="translate(290,70)"/>
<path d="M0 0 C0.66 0 1.32 0 2 0 C3.37432457 3.81756824 2.67975039 7.07255329 2 11 C0.68 11.33 -0.64 11.66 -2 12 C-1.34 8.04 -0.68 4.08 0 0 Z " fill="#DAFBEC" transform="translate(274,66)"/>
<path d="M0 0 C2.05078125 0.03255208 4.1015625 0.06510417 6.15234375 0.09765625 C6.15234375 0.75765625 6.15234375 1.41765625 6.15234375 2.09765625 C4.17234375 2.42765625 2.19234375 2.75765625 0.15234375 3.09765625 C-0.17765625 4.41765625 -0.50765625 5.73765625 -0.84765625 7.09765625 C-1.50765625 6.76765625 -2.16765625 6.43765625 -2.84765625 6.09765625 C-2.89037725 4.4315372 -2.88829457 2.7638274 -2.84765625 1.09765625 C-1.84765625 0.09765625 -1.84765625 0.09765625 0 0 Z " fill="#4B9A70" transform="translate(336.84765625,62.90234375)"/>
<path d="M0 0 C2.31 0.33 4.62 0.66 7 1 C4.27521226 4.36591427 0.93143208 5.44226276 -3 7 C-1.125 2.25 -1.125 2.25 0 0 Z " fill="#3AA46B" transform="translate(89,64)"/>
<path d="M0 0 C1.485 0.99 1.485 0.99 3 2 C5.0492094 2.45139459 5.0492094 2.45139459 7.1875 2.625 C8.445625 2.74875 9.70375 2.8725 11 3 C11 3.66 11 4.32 11 5 C7.7 5 4.4 5 1 5 C0.67 3.35 0.34 1.7 0 0 Z " fill="#C7EBD7" transform="translate(156,75)"/>
<path d="M0 0 C0.66 0 1.32 0 2 0 C2.33 0.99 2.66 1.98 3 3 C5.64 3.33 8.28 3.66 11 4 C11 4.33 11 4.66 11 5 C10.07767578 5.09087891 10.07767578 5.09087891 9.13671875 5.18359375 C8.32847656 5.26738281 7.52023438 5.35117187 6.6875 5.4375 C5.88699219 5.51871094 5.08648437 5.59992187 4.26171875 5.68359375 C1.83912821 5.95265693 1.83912821 5.95265693 -1 7 C-1.04254356 5.00045254 -1.04080783 2.99958364 -1 1 C-0.67 0.67 -0.34 0.34 0 0 Z " fill="#6A6B9E" transform="translate(224,26)"/>
<path d="M0 0 C2.9375 0.8125 2.9375 0.8125 6 2 C6.33 2.99 6.66 3.98 7 5 C3.98968256 5.93423645 3.13349732 6.04449911 0 5 C-0.75 3 -0.75 3 -1 1 C-0.67 0.67 -0.34 0.34 0 0 Z " fill="#08A64A" transform="translate(83,14)"/>
<path d="M0 0 C-0.33 0.66 -0.66 1.32 -1 2 C-3.50390625 2.6328125 -3.50390625 2.6328125 -6.5625 3.125 C-8.08037109 3.37636719 -8.08037109 3.37636719 -9.62890625 3.6328125 C-10.80259766 3.81457031 -10.80259766 3.81457031 -12 4 C-8.47217637 0.27789043 -5.13125677 -1.90046547 0 0 Z " fill="#D1F9E4" transform="translate(50,10)"/>
<path d="M0 0 C1.98 0 3.96 0 6 0 C6 0.66 6 1.32 6 2 C5.01 2 4.02 2 3 2 C3 2.66 3 3.32 3 4 C3.66 4 4.32 4 5 4 C5 4.66 5 5.32 5 6 C2.525 5.01 2.525 5.01 0 4 C0 2.68 0 1.36 0 0 Z " fill="#C7F7DD" transform="translate(337,65)"/>
<path d="M0 0 C0.33 0.99 0.66 1.98 1 3 C0 4 0 4 -2.06640625 4.09765625 C-2.89011719 4.08605469 -3.71382812 4.07445312 -4.5625 4.0625 C-5.38878906 4.05347656 -6.21507812 4.04445313 -7.06640625 4.03515625 C-7.70449219 4.02355469 -8.34257812 4.01195312 -9 4 C-6.19632015 0.92930303 -4.26207314 0 0 0 Z " fill="#E5FDF0" transform="translate(148,59)"/>
<path d="M0 0 C0 0.99 0 1.98 0 3 C-0.66 3 -1.32 3 -2 3 C-3.62514468 4.45833358 -3.62514468 4.45833358 -5 6 C-5.99 5.67 -6.98 5.34 -8 5 C-8.33 4.34 -8.66 3.68 -9 3 C-5.81237635 0.87491756 -3.73487777 0.4979837 0 0 Z " fill="#39358B" transform="translate(242,49)"/>
<path d="M0 0 C1.1875 1.5625 1.1875 1.5625 2 4 C0.625 7.75 0.625 7.75 -1 11 C-1.33 11 -1.66 11 -2 11 C-2.05399736 9.54207116 -2.09279177 8.08357288 -2.125 6.625 C-2.15980469 5.40683594 -2.15980469 5.40683594 -2.1953125 4.1640625 C-2 2 -2 2 0 0 Z " fill="#353292" transform="translate(182,32)"/>
<path d="M0 0 C1.98 0 3.96 0 6 0 C6 1.98 6 3.96 6 6 C4.68 4.68 3.36 3.36 2 2 C2 3.32 2 4.64 2 6 C1.34 6 0.68 6 0 6 C0 4.02 0 2.04 0 0 Z " fill="#E1FEF2" transform="translate(179,72)"/>
<path d="M0 0 C0.99 0.33 1.98 0.66 3 1 C2.01 2.485 2.01 2.485 1 4 C0.54860541 6.0492094 0.54860541 6.0492094 0.375 8.1875 C0.25125 9.445625 0.1275 10.70375 0 12 C-0.66 11.67 -1.32 11.34 -2 11 C-3.27536232 5.55072464 -3.27536232 5.55072464 -2 3 C-1.34 3 -0.68 3 0 3 C0 2.01 0 1.02 0 0 Z " fill="#D2FBE7" transform="translate(156,63)"/>
<path d="M0 0 C0.33 0.99 0.66 1.98 1 3 C0.67 3.66 0.34 4.32 0 5 C0.66 5.33 1.32 5.66 2 6 C0.35 6.33 -1.3 6.66 -3 7 C-3.33 5.35 -3.66 3.7 -4 2 C-2.68 1.34 -1.36 0.68 0 0 Z " fill="#4F4D8B" transform="translate(190,39)"/>
<path d="M0 0 C1.32 0.33 2.64 0.66 4 1 C3.67 2.98 3.34 4.96 3 7 C2.01 7 1.02 7 0 7 C0 4.69 0 2.38 0 0 Z " fill="#373295" transform="translate(242,38)"/>
<path d="M0 0 C0.66 0.33 1.32 0.66 2 1 C1.67 1.99 1.34 2.98 1 4 C-2.3 4 -5.6 4 -9 4 C-9 3.34 -9 2.68 -9 2 C-6.03 2 -3.06 2 0 2 C0 1.34 0 0.68 0 0 Z " fill="#D4F4DF" transform="translate(252,76)"/>
<path d="M0 0 C3 3.75 3 3.75 3 6 C0.69 6.33 -1.62 6.66 -4 7 C-4.33 6.01 -4.66 5.02 -5 4 C-2.525 4.495 -2.525 4.495 0 5 C0 3.35 0 1.7 0 0 Z " fill="#34A366" transform="translate(22,60)"/>
<path d="M0 0 C0.75 1.6875 0.75 1.6875 1 4 C-0.78517826 6.64698845 -2.12021246 8.56010623 -5 10 C-7.125 9.0625 -7.125 9.0625 -9 8 C-7.329375 7.13375 -7.329375 7.13375 -5.625 6.25 C-2.66807857 4.57739798 -1.07684279 3.35017758 0 0 Z " fill="#C9F3E1" transform="translate(98,61)"/>
<path d="M0 0 C0.66 0.33 1.32 0.66 2 1 C1.67 4.96 1.34 8.92 1 13 C-1 11 -1 11 -1.23046875 8.90625 C-1.21628906 8.1121875 -1.20210938 7.318125 -1.1875 6.5 C-1.18105469 5.7059375 -1.17460937 4.911875 -1.16796875 4.09375 C-1 2 -1 2 0 0 Z " fill="#575793" transform="translate(288,34)"/>
<path d="M0 0 C1.84765625 0.33984375 1.84765625 0.33984375 4.0625 0.9375 C5.16271484 1.22947266 5.16271484 1.22947266 6.28515625 1.52734375 C7.13400391 1.76130859 7.13400391 1.76130859 8 2 C8 2.99 8 3.98 8 5 C1.375 5.25 1.375 5.25 -2 3 C-1 1 -1 1 0 0 Z " fill="#75C399" transform="translate(285,74)"/>
<path d="M0 0 C0.33 1.32 0.66 2.64 1 4 C-1.64 4 -4.28 4 -7 4 C-6.67 3.01 -6.34 2.02 -6 1 C-4.7934375 1.0309375 -4.7934375 1.0309375 -3.5625 1.0625 C-1.06645115 1.29633621 -1.06645115 1.29633621 0 0 Z " fill="#333488" transform="translate(341,51)"/>
<path d="M0 0 C0.99 0.33 1.98 0.66 3 1 C-0.07999946 4.67230705 -2.2482602 5.56802365 -7 6 C-7 5.34 -7 4.68 -7 4 C-5.02 3.67 -3.04 3.34 -1 3 C-0.67 2.01 -0.34 1.02 0 0 Z " fill="#4C4A91" transform="translate(240,51)"/>
<path d="M0 0 C3.81300782 3.2870757 5.22972246 6.39727838 7 11 C6.34 11 5.68 11 5 11 C5 10.01 5 9.02 5 8 C4.360625 7.79375 3.72125 7.5875 3.0625 7.375 C1 6 1 6 0.25 2.875 C0.1675 1.92625 0.085 0.9775 0 0 Z " fill="#2FA964" transform="translate(91,18)"/>
<path d="M0 0 C0.33 0 0.66 0 1 0 C1.1953125 6.0546875 1.1953125 6.0546875 1 8 C-1 10 -1 10 -4.625 10.125 C-5.73875 10.08375 -6.8525 10.0425 -8 10 C-8 9.67 -8 9.34 -8 9 C-7.05125 8.814375 -6.1025 8.62875 -5.125 8.4375 C-1.61628301 7.26599195 -1.61628301 7.26599195 -0.625 3.375 C-0.41875 2.26125 -0.2125 1.1475 0 0 Z " fill="#3A9666" transform="translate(232,68)"/>
<path d="M0 0 C2.8290723 2.8290723 3.37611108 3.38144425 4 7 C3.34 7 2.68 7 2 7 C1.34 8.32 0.68 9.64 0 11 C0 7.37 0 3.74 0 0 Z " fill="#B7F7D3" transform="translate(200,67)"/>
<path d="M0 0 C1.485 0.99 1.485 0.99 3 2 C3.40843923 4.71203652 3.13336867 7.2437142 3 10 C2.01 9.67 1.02 9.34 0 9 C0 6.03 0 3.06 0 0 Z " fill="#51AD7A" transform="translate(260,66)"/>
<path d="M0 0 C3.3 0 6.6 0 10 0 C10 0.99 10 1.98 10 3 C6.7 2.67 3.4 2.34 0 2 C0 1.34 0 0.68 0 0 Z " fill="#349F64" transform="translate(177,69)"/>
<path d="M0 0 C1.65 0.33 3.3 0.66 5 1 C4.34 2.32 3.68 3.64 3 5 C1.68 5 0.36 5 -1 5 C-0.67 3.35 -0.34 1.7 0 0 Z " fill="#FCFCFC" transform="translate(265,68)"/>
<path d="M0 0 C0.66 0 1.32 0 2 0 C2 0.66 2 1.32 2 2 C3.98 2.66 5.96 3.32 8 4 C8 4.66 8 5.32 8 6 C4.17902761 5.46930939 1.93828597 4.50298434 -1 2 C-0.67 1.34 -0.34 0.68 0 0 Z " fill="#343394" transform="translate(292,48)"/>
<path d="M0 0 C1.22508067 2.31678563 2.01596284 4.08580027 2.5 6.6875 C2.665 7.450625 2.83 8.21375 3 9 C3.66 9.33 4.32 9.66 5 10 C4.34 10 3.68 10 3 10 C2.67 10.66 2.34 11.32 2 12 C-0.13586678 8.79619983 -0.23132175 7.98060033 -0.125 4.3125 C-0.10695312 3.50425781 -0.08890625 2.69601563 -0.0703125 1.86328125 C-0.04710937 1.24839844 -0.02390625 0.63351563 0 0 Z " fill="#D1D4F1" transform="translate(184,37)"/>
<path d="M0 0 C1.98 0 3.96 0 6 0 C6 1.98 6 3.96 6 6 C5.34 6 4.68 6 4 6 C4 4.68 4 3.36 4 2 C2.68 2.33 1.36 2.66 0 3 C0 2.01 0 1.02 0 0 Z " fill="#5D5A96" transform="translate(204,42)"/>
<path d="M0 0 C1.21236328 0.04060547 1.21236328 0.04060547 2.44921875 0.08203125 C3.06410156 0.11683594 3.67898438 0.15164062 4.3125 0.1875 C2.04338979 1.38935922 0.37509624 2.17811056 -2.1875 2.5625 C-5.32280483 3.34632621 -6.59667241 4.78692017 -8.6875 7.1875 C-7.75422802 1.77452251 -5.49696006 -0.23899826 0 0 Z " fill="#D9DBF2" transform="translate(266.6875,29.8125)"/>
<path d="M0 0 C2.64 0 5.28 0 8 0 C6.02 0.99 6.02 0.99 4 2 C4.66 2.66 5.32 3.32 6 4 C3.36 3.67 0.72 3.34 -2 3 C-1.34 2.67 -0.68 2.34 0 2 C0 1.34 0 0.68 0 0 Z " fill="#383687" transform="translate(226,26)"/>
<path d="M0 0 C1.32 0.33 2.64 0.66 4 1 C4 3.97 4 6.94 4 10 C1 8 1 8 0.48828125 6.0546875 C0.32552083 4.03645833 0.16276042 2.01822917 0 0 Z " fill="#53AF7E" transform="translate(230,65)"/>
<path d="M0 0 C2.01822917 0.06510417 4.03645833 0.13020833 6.0546875 0.1953125 C6.0546875 0.8553125 6.0546875 1.5153125 6.0546875 2.1953125 C3.7446875 2.1953125 1.4346875 2.1953125 -0.9453125 2.1953125 C-1.2753125 2.8553125 -1.6053125 3.5153125 -1.9453125 4.1953125 C-2.6053125 3.5353125 -3.2653125 2.8753125 -3.9453125 2.1953125 C-1.9453125 0.1953125 -1.9453125 0.1953125 0 0 Z " fill="#529A76" transform="translate(160.9453125,62.8046875)"/>
<path d="M0 0 C1.77007714 -0.08114106 3.54122098 -0.13925505 5.3125 -0.1875 C6.29863281 -0.22230469 7.28476562 -0.25710937 8.30078125 -0.29296875 C11 0 11 0 12.85546875 1.51171875 C13.23316406 2.00285156 13.61085938 2.49398437 14 3 C13.01 3 12.02 3 11 3 C10.67 2.67 10.34 2.34 10 2 C4.82264323 1.62947661 4.82264323 1.62947661 0 3 C0 2.01 0 1.02 0 0 Z " fill="#CCF8E3" transform="translate(261,62)"/>
<path d="M0 0 C0 0.66 0 1.32 0 2 C-4.455 2.495 -4.455 2.495 -9 3 C-9 2.01 -9 1.02 -9 0 C-3.375 -1.125 -3.375 -1.125 0 0 Z " fill="#DFFCED" transform="translate(343,61)"/>
<path d="M0 0 C3.125 -0.1875 3.125 -0.1875 6 0 C6 0.99 6 1.98 6 3 C3.36 3 0.72 3 -2 3 C-1.34 2.01 -0.68 1.02 0 0 Z " fill="#383189" transform="translate(132,52)"/>
<path d="M0 0 C4.75 0.75 4.75 0.75 7 3 C4.36 3.33 1.72 3.66 -1 4 C-0.67 2.68 -0.34 1.36 0 0 Z " fill="#36378C" transform="translate(222,50)"/>
<path d="M0 0 C1.9375 0.3125 1.9375 0.3125 4 1 C4.33 1.99 4.66 2.98 5 4 C5.99 3.67 6.98 3.34 8 3 C8 3.66 8 4.32 8 5 C5.69 4.67 3.38 4.34 1 4 C0.67 2.68 0.34 1.36 0 0 Z " fill="#38378D" transform="translate(122,49)"/>
<path d="M0 0 C0.66 0 1.32 0 2 0 C2.66 1.98 3.32 3.96 4 6 C3.01 6.495 3.01 6.495 2 7 C1.34 7.99 0.68 8.98 0 10 C0 6.7 0 3.4 0 0 Z " fill="#353291" transform="translate(327,20)"/>
<path d="M0 0 C0.33 0.66 0.66 1.32 1 2 C1.99 2 2.98 2 4 2 C4 3.32 4 4.64 4 6 C2.02 6 0.04 6 -2 6 C-2.33 5.34 -2.66 4.68 -3 4 C-1.68 4.33 -0.36 4.66 1 5 C0.67 3.35 0.34 1.7 0 0 Z " fill="#C1F5DA" transform="translate(289,70)"/>
<path d="M0 0 C2.6875 0.3125 2.6875 0.3125 5 1 C5 1.99 5 2.98 5 4 C2.36 3.67 -0.28 3.34 -3 3 C-1.8125 1.4375 -1.8125 1.4375 0 0 Z " fill="#4B4694" transform="translate(27,75)"/>
<path d="M0 0 C1.98 0 3.96 0 6 0 C4.35 1.65 2.7 3.3 1 5 C2.65 5 4.3 5 6 5 C6 5.33 6 5.66 6 6 C4.02 6 2.04 6 0 6 C0 4.02 0 2.04 0 0 Z " fill="#96E2BB" transform="translate(141,71)"/>
<path d="M0 0 C1.85776765 3.13498292 2.20140476 5.37471432 2 9 C1.01 9.495 1.01 9.495 0 10 C-0.74926071 6.33694766 -1.2380014 3.57644848 0 0 Z " fill="#46458D" transform="translate(33,50)"/>
<path d="M0 0 C0.12375 0.5775 0.2475 1.155 0.375 1.75 C1.00648824 4.02335767 1.88858191 5.9253529 3 8 C1.125 8.625 1.125 8.625 -1 9 C-1.66 8.34 -2.32 7.68 -3 7 C-2.01 4.69 -1.02 2.38 0 0 Z " fill="#DFDFF1" transform="translate(246,44)"/>
<path d="M0 0 C1.98 0.99 3.96 1.98 6 3 C5.01 3.495 5.01 3.495 4 4 C4 4.99 4 5.98 4 7 C3.34 7 2.68 7 2 7 C0.5393715 4.35261084 0 3.10551666 0 0 Z " fill="#343390" transform="translate(181,46)"/>
<path d="M0 0 C0.45375 0.474375 0.9075 0.94875 1.375 1.4375 C2.93258204 3.09027808 2.93258204 3.09027808 5 4 C4.67 4.99 4.34 5.98 4 7 C1.03 6.505 1.03 6.505 -2 6 C-1.34 4.02 -0.68 2.04 0 0 Z " fill="#4C4A96" transform="translate(240,44)"/>
<path d="M0 0 C0.66 0.99 1.32 1.98 2 3 C1.34 3.66 0.68 4.32 0 5 C-1.32 5 -2.64 5 -4 5 C-3.6875 3.0625 -3.6875 3.0625 -3 1 C-2.01 0.67 -1.02 0.34 0 0 Z " fill="#3F3C97" transform="translate(187,29)"/>
<path d="M0 0 C0.66 0.33 1.32 0.66 2 1 C1.875 2.875 1.875 2.875 1 5 C-2.0625 6.25 -2.0625 6.25 -5 7 C-3.70700306 4.11562221 -2.34058637 2.12780579 0 0 Z " fill="#5A579A" transform="translate(294,26)"/>
<path d="M0 0 C3.875 1.75 3.875 1.75 5 4 C5.99 4.66 6.98 5.32 8 6 C6.35 6 4.7 6 3 6 C2.67 4.68 2.34 3.36 2 2 C1.34 2 0.68 2 0 2 C-0.33 2.66 -0.66 3.32 -1 4 C-0.67 2.68 -0.34 1.36 0 0 Z " fill="#D7F9E6" transform="translate(202,73)"/>
<path d="M0 0 C2 3 2 3 2 5 C0.02 5.99 0.02 5.99 -2 7 C-2.33 5.68 -2.66 4.36 -3 3 C-2.01 3 -1.02 3 0 3 C0 2.01 0 1.02 0 0 Z M-4 7 C-3.34 7 -2.68 7 -2 7 C-2 7.66 -2 8.32 -2 9 C-2.66 9 -3.32 9 -4 9 C-4 8.34 -4 7.68 -4 7 Z " fill="#EFEFF4" transform="translate(251,45)"/>
<path d="M0 0 C0.33 0 0.66 0 1 0 C1 3.3 1 6.6 1 10 C0.01 9.01 -0.98 8.02 -2 7 C-1.56521739 1.56521739 -1.56521739 1.56521739 0 0 Z " fill="#239D58" transform="translate(58,39)"/>
<path d="M0 0 C2 4 2 4 2 6 C-0.5 7.625 -0.5 7.625 -3 9 C-2.01 6.03 -1.02 3.06 0 0 Z " fill="#D3D4EB" transform="translate(56,27)"/>
<path d="M0 0 C2 3 2 3 2 5 C-3.75 3.25 -3.75 3.25 -6 1 C-4.02 0.67 -2.04 0.34 0 0 Z " fill="#C3F3D9" transform="translate(77,2)"/>
<path d="M0 0 C3 3.75 3 3.75 3 6 C5.31 6 7.62 6 10 6 C10 6.33 10 6.66 10 7 C3.9453125 7.1953125 3.9453125 7.1953125 2 7 C0 5 0 5 -0.125 2.375 C-0.08375 1.59125 -0.0425 0.8075 0 0 Z " fill="#3F966A" transform="translate(157,71)"/>
<path d="M0 0 C0.66 0 1.32 0 2 0 C1.46930939 3.82097239 0.50298434 6.06171403 -2 9 C-2 7.02 -2 5.04 -2 3 C-1.34 3 -0.68 3 0 3 C0 2.01 0 1.02 0 0 Z " fill="#C9F8DC" transform="translate(90,57)"/>
<path d="M0 0 C4 4.625 4 4.625 4 8 C2.68 7.67 1.36 7.34 0 7 C0 4.66666667 0 2.33333333 0 0 Z " fill="#494691" transform="translate(257,44)"/>
<path d="M0 0 C0.66 0.33 1.32 0.66 2 1 C0.84826645 3.46800047 -0.04783565 5.04783565 -2 7 C-2.99 6.34 -3.98 5.68 -5 5 C-3.35 3.35 -1.7 1.7 0 0 Z " fill="#45428A" transform="translate(203,46)"/>
<path d="M0 0 C0.33 0 0.66 0 1 0 C1 1.65 1 3.3 1 5 C-0.65 5.66 -2.3 6.32 -4 7 C-1.125 1.125 -1.125 1.125 0 0 Z " fill="#4A4893" transform="translate(41,35)"/>
<path d="M0 0 C0.80824219 0.11085938 1.61648437 0.22171875 2.44921875 0.3359375 C3.37154297 0.47902344 3.37154297 0.47902344 4.3125 0.625 C4.3125 0.955 4.3125 1.285 4.3125 1.625 C0.3525 2.285 -3.6075 2.945 -7.6875 3.625 C-7.6875 2.965 -7.6875 2.305 -7.6875 1.625 C-4.33422361 -0.61051759 -3.78006343 -0.54783528 0 0 Z " fill="#EBEDFC" transform="translate(192.6875,23.375)"/>
<path d="M0 0 C0.33 1.32 0.66 2.64 1 4 C-2.2830098 5.6415049 -5.42545033 4.51888624 -9 4 C-9 3.67 -9 3.34 -9 3 C-7.88625 2.87625 -6.7725 2.7525 -5.625 2.625 C-1.96896323 2.3534187 -1.96896323 2.3534187 0 0 Z " fill="#B6E4CA" transform="translate(233,75)"/>
</svg>
